<svg class="logo" width="29" height="15" viewBox="0 0 29 15" fill="none" xmlns="http://www.w3.org/2000/svg">
<path d="M0.036 1.382V0.715999H4.14L4.302 1.202L8.334 11.21C9.798 8.03 11.16 4.694 12.42 1.202L12.582 0.715999H16.686V1.382C15.678 1.418 15.072 1.526 14.868 1.706C14.784 1.79 14.742 1.874 14.742 1.958C14.742 2.042 14.856 5.36 15.084 11.912L15.102 12.416C15.138 12.788 15.246 13.028 15.426 13.136C15.618 13.232 15.996 13.298 16.56 13.334V14H11.574V13.334C11.934 13.31 12.21 13.28 12.402 13.244C12.606 13.208 12.786 13.13 12.942 13.01C13.11 12.89 13.194 12.722 13.194 12.506C13.158 10.19 13.026 7.106 12.798 3.254C11.13 6.914 9.624 10.496 8.28 14H7.578L2.97 3.182C2.79 6.278 2.7 9.386 2.7 12.506C2.7 12.938 3.234 13.202 4.302 13.298V14H0.054V13.352C0.594 13.292 0.966 13.136 1.17 12.884C1.374 12.62 1.5 12.2 1.548 11.624C1.788 7.928 1.926 5.06 1.962 3.02L1.98 2.012C1.98 1.784 1.818 1.634 1.494 1.562C1.182 1.478 0.696 1.418 0.036 1.382ZM17.6783 14V13.334C18.0383 13.31 18.3143 13.28 18.5063 13.244C18.7103 13.208 18.8903 13.13 19.0463 13.01C19.2143 12.89 19.2983 12.722 19.2983 12.506C19.2983 8.354 19.2563 4.886 19.1723 2.102C19.1603 1.838 19.0643 1.664 18.8843 1.58C18.7163 1.484 18.3983 1.424 17.9303 1.4L17.6783 1.382V0.715999C18.3263 0.763999 19.1723 0.788 20.2163 0.788C21.2603 0.788 22.0883 0.758 22.7003 0.698C23.3123 0.638 23.6783 0.608 23.7983 0.608H24.1583C24.7823 0.608 25.3283 0.686 25.7963 0.842C26.2763 0.997999 26.6423 1.184 26.8943 1.4C27.1583 1.616 27.3683 1.874 27.5243 2.174C27.7763 2.654 27.9023 3.212 27.9023 3.848C27.9023 5.06 27.2363 5.99 25.9043 6.638L25.3643 6.908C27.3683 7.58 28.3703 8.666 28.3703 10.166C28.3703 11.234 27.9323 12.158 27.0563 12.938C26.1803 13.718 25.1843 14.108 24.0683 14.108H23.6903C23.3423 14.108 22.8683 14.084 22.2683 14.036L21.6923 14C21.0443 13.952 20.3723 13.928 19.6763 13.928C18.9923 13.928 18.3263 13.952 17.6783 14ZM21.0623 11.48C21.0623 12.152 21.2663 12.572 21.6743 12.74C22.0823 12.908 22.9643 12.992 24.3203 12.992C24.8243 12.992 25.3043 12.74 25.7603 12.236C26.2283 11.732 26.4623 11.048 26.4623 10.184C26.4623 9.308 26.1803 8.636 25.6163 8.168C25.0523 7.688 24.2663 7.448 23.2583 7.448C22.2623 7.448 21.5423 7.484 21.0983 7.556C21.0743 8.924 21.0623 10.232 21.0623 11.48ZM21.0983 6.692C21.8783 6.62 22.5023 6.584 22.9703 6.584C23.4383 6.584 23.8163 6.596 24.1043 6.62C24.7523 6.428 25.2203 6.098 25.5083 5.63C25.7963 5.162 25.9403 4.67 25.9403 4.154C25.9403 3.626 25.8503 3.182 25.6703 2.822C25.4903 2.45 25.2803 2.18 25.0403 2.012C24.5483 1.664 24.1823 1.49 23.9423 1.49C22.6223 1.49 21.7703 1.562 21.3863 1.706L21.1703 1.904C21.1343 3.596 21.1103 5.192 21.0983 6.692Z" fill="white"/>
</svg>
