<svg width="10" height="14" viewBox="0 0 10 14" fill="none" xmlns="http://www.w3.org/2000/svg">
<path d="M0.7 1.4C0.479086 1.23431 0.434314 0.920914 0.6 0.7C0.765685 0.479086 1.07909 0.434315 1.3 0.6L0.7 1.4ZM9 7L9.3 6.6C9.4259 6.69443 9.5 6.84262 9.5 7C9.5 7.15738 9.4259 7.30557 9.3 7.4L9 7ZM1.3 13.4C1.07909 13.5657 0.765685 13.5209 0.6 13.3C0.434314 13.0791 0.479086 12.7657 0.7 12.6L1.3 13.4ZM1.3 0.6L9.3 6.6L8.7 7.4L0.7 1.4L1.3 0.6ZM9.3 7.4L1.3 13.4L0.7 12.6L8.7 6.6L9.3 7.4Z" fill="white"/>
</svg>
