<svg class="logo" width="60" height="12" viewBox="0 0 60 12" fill="none" xmlns="http://www.w3.org/2000/svg">
    <path d="M8.652 6.016L8.624 1.83C8.624 1.494 8.204 1.28867 7.364 1.214V0.668H10.668V1.172C9.94933 1.256 9.576 1.46133 9.548 1.788L9.534 2.04C9.51533 2.30133 9.48733 3.22067 9.45 4.798C9.41267 6.37533 9.394 7.402 9.394 7.878C9.394 8.34467 9.31 8.79733 9.142 9.236C8.974 9.67467 8.75933 10.02 8.498 10.272C8.246 10.5147 7.91933 10.7107 7.518 10.86C7.11667 11 6.72933 11.0887 6.356 11.126C5.98267 11.1727 5.53467 11.196 5.012 11.196C4.49867 11.196 4.02733 11.112 3.598 10.944C3.16867 10.776 2.83733 10.5753 2.604 10.342C2.37067 10.0993 2.17467 9.824 2.016 9.516C1.77333 9.012 1.652 8.508 1.652 8.004C1.63333 4.03733 1.61 1.956 1.582 1.76C1.56333 1.564 1.484 1.42867 1.344 1.354C1.204 1.27 0.914667 1.214 0.476 1.186V0.668H4.34V1.186C4.04133 1.20467 3.81733 1.228 3.668 1.256C3.276 1.34 3.08 1.53133 3.08 1.83L3.094 5.54V6.66C3.10333 7.17333 3.108 7.62133 3.108 8.004C3.108 8.37733 3.15467 8.676 3.248 8.9C3.34133 9.124 3.49067 9.35267 3.696 9.586C3.91067 9.81 4.22333 9.99667 4.634 10.146C5.04467 10.286 5.502 10.356 6.006 10.356C6.51 10.356 6.916 10.3047 7.224 10.202C7.532 10.09 7.77933 9.94067 7.966 9.754C8.162 9.558 8.30667 9.27333 8.4 8.9C8.568 8.26533 8.652 7.304 8.652 6.016ZM11.0437 11V10.482C11.3237 10.4633 11.5384 10.44 11.6877 10.412C11.8464 10.384 11.9864 10.3233 12.1077 10.23C12.2384 10.1367 12.3037 10.006 12.3037 9.838C12.3037 6.60867 12.271 3.91133 12.2057 1.746C12.1964 1.54067 12.1217 1.40533 11.9817 1.34C11.851 1.26533 11.6037 1.21867 11.2397 1.2L11.0437 1.186V0.668C11.5664 0.705333 12.2104 0.724 12.9757 0.724C13.7504 0.724 14.3944 0.700666 14.9077 0.654C15.4304 0.607333 15.729 0.584 15.8037 0.584H16.0837C16.709 0.584 17.2504 0.812666 17.7077 1.27C18.1744 1.72733 18.4077 2.29667 18.4077 2.978C18.4077 3.65 18.277 4.16333 18.0157 4.518C17.7544 4.87267 17.3157 5.25067 16.6997 5.652C17.6797 7.57467 18.5104 9.07733 19.1917 10.16L19.9617 10.496V11C19.1217 11 18.445 11.0187 17.9317 11.056L15.4817 6.002H15.0897C14.5204 6.002 14.0584 5.94133 13.7037 5.82C13.6757 7.78933 13.6617 9.12867 13.6617 9.838C13.6617 10.1273 13.8624 10.3187 14.2637 10.412C14.413 10.44 14.6324 10.4633 14.9217 10.482V11H11.0437ZM13.7177 5.064C13.979 5.22267 14.469 5.302 15.1877 5.302C15.6264 5.302 15.9857 5.18533 16.2657 4.952C16.5457 4.70933 16.7277 4.448 16.8117 4.168C16.905 3.87867 16.9517 3.58 16.9517 3.272C16.9517 2.964 16.9097 2.684 16.8257 2.432C16.751 2.18 16.653 1.984 16.5317 1.844C16.4197 1.704 16.2984 1.58267 16.1677 1.48C15.953 1.32133 15.771 1.242 15.6217 1.242C14.763 1.242 14.1937 1.30267 13.9137 1.424L13.7737 1.578C13.755 1.98867 13.7364 3.15067 13.7177 5.064ZM20.2344 11V10.496C20.5424 10.468 20.771 10.4027 20.9204 10.3C21.0697 10.188 21.2284 9.98267 21.3964 9.684C21.5644 9.376 21.8024 8.83467 22.1104 8.06L25.0224 0.78C25.0877 0.733333 25.237 0.691333 25.4704 0.654C25.713 0.616666 25.881 0.598 25.9744 0.598C28.3637 6.506 29.5957 9.53467 29.6704 9.684C29.7544 9.83333 29.829 9.95467 29.8944 10.048C29.969 10.132 30.0857 10.2207 30.2444 10.314C30.403 10.4073 30.5897 10.468 30.8044 10.496V11H26.8004V10.524C27.631 10.4587 28.0464 10.2533 28.0464 9.908C28.0464 9.656 27.9484 9.306 27.7524 8.858L27.4864 8.242C27.3744 7.99 27.2764 7.74733 27.1924 7.514H23.1464C22.9784 7.89667 22.7917 8.35867 22.5864 8.9C22.381 9.432 22.2784 9.74467 22.2784 9.838C22.2784 10.174 22.6984 10.3793 23.5384 10.454V11H20.2344ZM23.3424 6.912H27.0104L25.1484 2.306L23.3424 6.912ZM32.3287 3.622L32.3147 2.32V1.662C32.2774 1.42867 32.0767 1.29333 31.7127 1.256L31.0127 1.186V0.668H33.6587C33.7707 0.994666 35.7727 3.69667 39.6647 8.774C39.6274 8.25133 39.6087 7.32267 39.6087 5.988C39.6087 4.644 39.5901 3.356 39.5527 2.124C39.5434 1.79733 39.4734 1.578 39.3427 1.466C39.2121 1.34467 38.8621 1.256 38.2927 1.2V0.668H41.6807V1.172C41.0554 1.228 40.6774 1.354 40.5467 1.55L40.4627 1.984C40.3974 4.252 40.3647 6.492 40.3647 8.704L40.3927 11H39.5667C39.1934 10.44 38.7221 9.80067 38.1527 9.082C37.5834 8.354 37.1214 7.766 36.7667 7.318C36.0574 6.40333 34.8347 4.84467 33.0987 2.642V6.94C33.1454 8.72267 33.1687 9.70267 33.1687 9.88C33.1687 10.0573 33.2714 10.188 33.4767 10.272C33.6914 10.356 33.9901 10.4167 34.3727 10.454V11H31.0687V10.496C31.7967 10.4307 32.1841 10.2253 32.2307 9.88C32.2961 9.41333 32.3287 7.68667 32.3287 4.7V3.622ZM50.3375 6.016L50.3095 1.83C50.3095 1.494 49.8895 1.28867 49.0495 1.214V0.668H52.3535V1.172C51.6349 1.256 51.2615 1.46133 51.2335 1.788L51.2195 2.04C51.2009 2.30133 51.1729 3.22067 51.1355 4.798C51.0982 6.37533 51.0795 7.402 51.0795 7.878C51.0795 8.34467 50.9955 8.79733 50.8275 9.236C50.6595 9.67467 50.4449 10.02 50.1835 10.272C49.9315 10.5147 49.6049 10.7107 49.2035 10.86C48.8022 11 48.4149 11.0887 48.0415 11.126C47.6682 11.1727 47.2202 11.196 46.6975 11.196C46.1842 11.196 45.7129 11.112 45.2835 10.944C44.8542 10.776 44.5229 10.5753 44.2895 10.342C44.0562 10.0993 43.8602 9.824 43.7015 9.516C43.4589 9.012 43.3375 8.508 43.3375 8.004C43.3189 4.03733 43.2955 1.956 43.2675 1.76C43.2489 1.564 43.1695 1.42867 43.0295 1.354C42.8895 1.27 42.6002 1.214 42.1615 1.186V0.668H46.0255V1.186C45.7269 1.20467 45.5029 1.228 45.3535 1.256C44.9615 1.34 44.7655 1.53133 44.7655 1.83L44.7795 5.54V6.66C44.7889 7.17333 44.7935 7.62133 44.7935 8.004C44.7935 8.37733 44.8402 8.676 44.9335 8.9C45.0269 9.124 45.1762 9.35267 45.3815 9.586C45.5962 9.81 45.9089 9.99667 46.3195 10.146C46.7302 10.286 47.1875 10.356 47.6915 10.356C48.1955 10.356 48.6015 10.3047 48.9095 10.202C49.2175 10.09 49.4649 9.94067 49.6515 9.754C49.8475 9.558 49.9922 9.27333 50.0855 8.9C50.2535 8.26533 50.3375 7.304 50.3375 6.016ZM58.0493 3.608L57.5873 2.082C57.5126 1.89533 57.4379 1.774 57.3633 1.718C57.0926 1.47533 56.6493 1.354 56.0333 1.354C55.4266 1.354 54.9693 1.46133 54.6613 1.676C54.3533 1.89067 54.1993 2.27333 54.1993 2.824C54.1993 3.42133 54.4466 3.87867 54.9413 4.196C55.0439 4.27067 55.1699 4.35 55.3193 4.434L57.4473 5.54C58.5673 6.11867 59.1273 6.98667 59.1273 8.144C59.1273 8.63867 59.0666 9.03067 58.9453 9.32C58.8239 9.60933 58.5813 9.964 58.2173 10.384C57.7133 10.9347 56.9153 11.21 55.8233 11.21C54.9553 11.21 54.0453 11 53.0933 10.58C53.1586 9.684 53.1913 8.74133 53.1913 7.752H53.7093L53.9053 8.508C54.0359 9.012 54.1339 9.33867 54.1993 9.488C54.2739 9.628 54.3999 9.768 54.5773 9.908C55.0533 10.1133 55.5759 10.216 56.1453 10.216C56.7146 10.216 57.1346 10.1087 57.4053 9.894C57.6759 9.67 57.8113 9.26867 57.8113 8.69C57.8113 7.88733 57.3819 7.25733 56.5233 6.8L55.3893 6.24C54.8386 5.95067 54.4793 5.75467 54.3113 5.652C54.1433 5.54933 54.0033 5.442 53.8913 5.33L53.7793 5.204C53.3126 4.7 53.0793 4.126 53.0793 3.482C53.0793 2.82867 53.1819 2.31067 53.3873 1.928C53.6019 1.536 54.0219 1.16733 54.6473 0.821999C55.0953 0.579333 55.6786 0.458 56.3972 0.458C57.1253 0.458 57.8253 0.635333 58.4973 0.99L58.6653 1.144C58.6653 1.61067 58.6233 2.432 58.5393 3.608H58.0493Z" fill="#F0F0F0" />
</svg>