<svg width="533" height="533" viewBox="0 0 533 533" fill="none" xmlns="http://www.w3.org/2000/svg">
<path d="M284.433 30.368H286.433L286.433 30.3546L284.433 30.368ZM284.289 8.84H282.289L282.289 8.85338L284.289 8.84ZM277.809 5.672H275.809V7.5021L277.632 7.66414L277.809 5.672ZM277.809 2.864V0.864001H275.809V2.864H277.809ZM294.801 2.864H296.801V0.864001H294.801V2.864ZM294.801 5.456L295.033 7.44248L296.801 7.23585V5.456H294.801ZM289.041 8.624L287.048 8.45319L287.045 8.48309L287.044 8.51306L289.041 8.624ZM288.969 9.92L290.964 10.0625L290.965 10.0467L290.966 10.0309L288.969 9.92ZM288.537 24.104L290.536 24.1513L288.537 24.104ZM286.953 46.928L288.82 47.6433V47.6433L286.953 46.928ZM283.641 52.256L285.028 53.6966L285.029 53.6957L283.641 52.256ZM278.601 55.28L279.259 57.1684L279.279 57.1616L279.298 57.1544L278.601 55.28ZM272.625 56.648L272.426 54.6579L272.401 54.6604L272.377 54.6634L272.625 56.648ZM258.441 55.712L257.712 57.5745H257.712L258.441 55.712ZM253.329 52.616L251.887 54.0022L251.901 54.0163L251.915 54.0302L253.329 52.616ZM250.305 48.368L248.503 49.2356L248.514 49.2599L248.527 49.2839L250.305 48.368ZM248.433 40.592H250.433L250.433 40.5826L248.433 40.592ZM248.073 8.48L246.082 8.66962L246.086 8.71636L246.093 8.76284L248.073 8.48ZM246.849 6.392L245.82 8.10699L245.863 8.13296L245.908 8.15671L246.849 6.392ZM242.385 5.528H240.385V7.40441L242.257 7.52394L242.385 5.528ZM242.385 2.864V0.864001H240.385V2.864H242.385ZM262.257 2.864H264.257V0.864001H262.257V2.864ZM262.257 5.528L262.382 7.5241L264.257 7.4069V5.528H262.257ZM258.801 5.888L258.432 3.92225L258.407 3.927L258.382 3.93239L258.801 5.888ZM255.777 8.84H253.777L253.777 8.84755L255.777 8.84ZM255.849 27.92L257.849 27.92L257.849 27.9125L255.849 27.92ZM255.849 33.68H253.849V33.6982L253.849 33.7164L255.849 33.68ZM256.641 45.2L254.795 45.9692L254.795 45.9692L256.641 45.2ZM258.945 48.728L257.443 50.0493L257.471 50.0811L257.501 50.1118L258.945 48.728ZM263.769 51.608L263.085 53.4876L263.104 53.4945L263.123 53.501L263.769 51.608ZM277.089 51.896L277.721 53.7934L277.747 53.7848L277.772 53.7756L277.089 51.896ZM280.905 49.592L279.491 48.1778V48.1778L280.905 49.592ZM283.137 45.2L281.203 44.6882L281.2 44.7015L281.196 44.7149L283.137 45.2ZM286.433 30.3546L286.289 8.82662L282.289 8.85338L282.433 30.3814L286.433 30.3546ZM286.289 8.84C286.289 6.9186 285.003 5.667 283.547 4.95523C282.137 4.26566 280.226 3.87897 277.986 3.67985L277.632 7.66414C279.712 7.84902 281.041 8.18233 281.79 8.54877C282.151 8.72493 282.276 8.86077 282.304 8.89599C282.314 8.90921 282.306 8.9024 282.298 8.87772C282.289 8.85259 282.289 8.83617 282.289 8.84H286.289ZM279.809 5.672V2.864H275.809V5.672H279.809ZM277.809 4.864H294.801V0.864001H277.809V4.864ZM292.801 2.864V5.456H296.801V2.864H292.801ZM294.569 3.46952C292.618 3.69751 290.916 4.10935 289.625 4.81957C288.275 5.5618 287.194 6.75133 287.048 8.45319L291.033 8.7948C291.037 8.75616 291.043 8.73221 291.078 8.68548C291.126 8.6222 291.253 8.48895 291.553 8.32443C292.181 7.97865 293.288 7.64649 295.033 7.44248L294.569 3.46952ZM287.044 8.51306L286.972 9.80906L290.966 10.0309L291.038 8.73494L287.044 8.51306ZM286.974 9.7775C286.873 11.1823 286.729 15.9746 286.537 24.0567L290.536 24.1513C290.729 16.0094 290.872 11.3457 290.964 10.0625L286.974 9.7775ZM286.537 24.0567C286.345 32.163 286.249 37.4678 286.249 39.944H290.249C290.249 37.5242 290.344 32.269 290.536 24.1513L286.537 24.0567ZM286.249 39.944C286.249 42.0978 285.862 44.1835 285.085 46.2127L288.82 47.6433C289.771 45.1605 290.249 42.5902 290.249 39.944H286.249ZM285.085 46.2127C284.296 48.2724 283.333 49.7743 282.252 50.8163L285.029 53.6957C286.636 52.1457 287.881 50.0956 288.82 47.6433L285.085 46.2127ZM282.253 50.8154C281.194 51.8354 279.766 52.7124 277.903 53.4056L279.298 57.1544C281.563 56.3116 283.495 55.1726 285.028 53.6966L282.253 50.8154ZM277.942 53.3916C276.007 54.0665 274.17 54.4835 272.426 54.6579L272.824 58.6381C274.92 58.4285 277.066 57.9335 279.259 57.1684L277.942 53.3916ZM272.377 54.6634C270.564 54.8901 268.347 55.008 265.713 55.008V59.008C268.454 59.008 270.846 58.8859 272.873 58.6326L272.377 54.6634ZM265.713 55.008C263.294 55.008 261.12 54.6129 259.17 53.8495L257.712 57.5745C260.177 58.5391 262.852 59.008 265.713 59.008V55.008ZM259.17 53.8495C257.123 53.0488 255.687 52.1455 254.743 51.2018L251.915 54.0302C253.371 55.4865 255.342 56.6472 257.712 57.5745L259.17 53.8495ZM254.77 51.2298C253.709 50.1255 252.813 48.8689 252.083 47.4521L248.527 49.2839C249.429 51.0351 250.549 52.6105 251.887 54.0022L254.77 51.2298ZM252.107 47.5004C250.975 45.149 250.433 42.8519 250.433 40.592H246.433C246.433 43.5161 247.139 46.403 248.503 49.2356L252.107 47.5004ZM250.433 40.5826C250.385 30.3814 250.331 22.6002 250.271 17.2416C250.241 14.5631 250.209 12.4842 250.176 11.0089C250.144 9.61704 250.11 8.59998 250.053 8.19716L246.093 8.76284C246.09 8.74265 246.095 8.77674 246.103 8.9094C246.111 9.02678 246.119 9.1865 246.127 9.39285C246.144 9.80476 246.16 10.3719 246.177 11.0991C246.21 12.5517 246.241 14.6129 246.271 17.2864C246.331 22.6318 246.385 30.4026 246.433 40.6014L250.433 40.5826ZM250.064 8.29038C249.922 6.79755 249.248 5.40472 247.79 4.62729L245.908 8.15671C245.946 8.17696 245.954 8.18797 245.969 8.21344C245.993 8.25453 246.055 8.3838 246.082 8.66962L250.064 8.29038ZM247.878 4.67702C247.217 4.28058 246.392 4.04705 245.573 3.88844C244.716 3.72253 243.688 3.60712 242.512 3.53206L242.257 7.52394C243.337 7.59288 244.182 7.69347 244.813 7.81556C245.481 7.94496 245.76 8.07142 245.82 8.10699L247.878 4.67702ZM244.385 5.528V2.864H240.385V5.528H244.385ZM242.385 4.864H262.257V0.864001H242.385V4.864ZM260.257 2.864V5.528H264.257V2.864H260.257ZM262.132 3.53189C260.576 3.62911 259.325 3.75487 258.432 3.92225L259.169 7.85374C259.813 7.73313 260.865 7.61888 262.382 7.5241L262.132 3.53189ZM258.382 3.93239C257.166 4.19293 256.007 4.66795 255.136 5.51885C254.209 6.42324 253.777 7.58706 253.777 8.84H257.777C257.777 8.55694 257.848 8.46076 257.93 8.38115C258.066 8.24804 258.42 8.01507 259.22 7.8436L258.382 3.93239ZM253.777 8.84755L253.849 27.9275L257.849 27.9125L257.777 8.83245L253.777 8.84755ZM253.849 27.92V33.68H257.849V27.92H253.849ZM253.849 33.7164C253.897 36.348 253.921 38.6394 253.921 40.592H257.921C257.921 38.6086 257.897 36.292 257.848 33.6436L253.849 33.7164ZM253.921 40.592C253.921 42.6486 254.173 44.4784 254.795 45.9692L258.487 44.4308C258.148 43.6176 257.921 42.3754 257.921 40.592H253.921ZM254.795 45.9692C255.378 47.3703 256.282 48.729 257.443 50.0493L260.446 47.4067C259.496 46.327 258.863 45.3336 258.487 44.4308L254.795 45.9692ZM257.501 50.1118C258.885 51.5566 260.795 52.6549 263.085 53.4876L264.452 49.7284C262.518 49.0251 261.212 48.2034 260.389 47.3442L257.501 50.1118ZM263.123 53.501C265.474 54.3023 268.048 54.688 270.825 54.688V50.688C268.418 50.688 266.288 50.3537 264.414 49.715L263.123 53.501ZM270.825 54.688C273.527 54.688 275.853 54.4161 277.721 53.7934L276.456 49.9986C275.156 50.4319 273.307 50.688 270.825 50.688V54.688ZM277.772 53.7756C279.566 53.1232 281.109 52.2165 282.319 51.0062L279.491 48.1778C278.781 48.8875 277.779 49.5168 276.405 50.0164L277.772 53.7756ZM282.319 51.0062C283.664 49.661 284.542 47.8261 285.077 45.6851L281.196 44.7149C280.772 46.4138 280.161 47.507 279.491 48.1778L282.319 51.0062ZM285.07 45.7118C286.003 42.1888 286.433 37.0328 286.433 30.368H282.433C282.433 36.9512 281.999 41.6831 281.203 44.6882L285.07 45.7118Z" fill="white" fill-opacity="0.1"/>
<path d="M331.245 65.306L329.417 64.4926L328.604 66.3197L330.431 67.1331L331.245 65.306ZM332.328 62.8724L333.018 60.9952L331.262 60.3495L330.501 62.0589L332.328 62.8724ZM335.5 63.8906L335.984 61.9499L335.973 61.9474L335.963 61.9449L335.5 63.8906ZM337.854 63.9141L337.454 61.9545L337.419 61.9616L337.385 61.9699L337.854 63.9141ZM356.061 24.2593L357.912 25.0173L357.918 25.0031L357.923 24.9889L356.061 24.2593ZM355.858 21.8832L354.245 23.066L354.294 23.1326L354.348 23.1949L355.858 21.8832ZM352.665 19.6733L351.723 21.4378L351.741 21.4473L351.759 21.4564L352.665 19.6733ZM351.773 19.1976L349.946 18.3841L349.189 20.0854L350.832 20.9621L351.773 19.1976ZM352.857 16.7639L353.798 14.9994L351.903 13.9882L351.03 15.9504L352.857 16.7639ZM371.04 24.7808L371.688 22.8886L371.685 22.8876L371.04 24.7808ZM382.907 33.5319L381.04 34.2486L381.043 34.2581L381.047 34.2675L382.907 33.5319ZM369.005 52.011L368.689 50.0361L366.913 50.3201L367.007 52.116L369.005 52.011ZM371.283 78.4034L369.303 78.6881L369.391 79.2979L369.807 79.7527L371.283 78.4034ZM374.198 81.5927L376.025 82.4062L376.557 81.21L375.674 80.2434L374.198 81.5927ZM373.143 83.9606L372.33 85.7877L374.157 86.6012L374.97 84.7741L373.143 83.9606ZM363.489 79.9774L361.49 80.0424L361.534 81.3982L362.81 81.8587L363.489 79.9774ZM362.55 51.1076L364.549 51.0426L364.508 49.7902L363.364 49.2805L362.55 51.1076ZM354.577 46.5334L355.938 45.0679L353.919 43.1921L352.762 45.694L354.577 46.5334ZM347.603 69.279L346.397 70.8744L346.431 70.9004L346.467 70.9249L347.603 69.279ZM350.548 70.9843L352.375 71.7978L353.138 70.0848L351.477 69.2134L350.548 70.9843ZM349.464 73.418L348.651 75.2451L350.478 76.0586L351.291 74.2315L349.464 73.418ZM356.224 43.0108L354.405 42.1795L353.932 43.2149L354.581 44.1504L356.224 43.0108ZM368.43 47.8145L368.975 49.7388L368.993 49.7336L369.012 49.7279L368.43 47.8145ZM372.635 45.2732L371.146 43.938L371.132 43.9534L371.119 43.969L372.635 45.2732ZM376.332 37.1463L374.349 36.8854L374.345 36.9188L374.342 36.9524L376.332 37.1463ZM376.181 33.7688L374.246 34.2749L374.256 34.313L374.267 34.3506L376.181 33.7688ZM375.232 31.2972L377.001 30.3631L376.987 30.337L376.972 30.3114L375.232 31.2972ZM364.759 26.3192L364.779 24.3193L364.349 24.315L363.955 24.4882L364.759 26.3192ZM363.78 26.7499L362.975 24.9189L362.314 25.2092L361.991 25.8543L363.78 26.7499ZM333.072 66.1195L334.155 63.6858L330.501 62.0589L329.417 64.4926L333.072 66.1195ZM331.638 64.7495C333.016 65.2561 334.161 65.6278 335.037 65.8363L335.963 61.9449C335.319 61.7917 334.349 61.4846 333.018 60.9952L331.638 64.7495ZM335.017 65.8313C336.116 66.1053 337.228 66.1225 338.323 65.8582L337.385 61.9699C336.949 62.075 336.492 62.0766 335.984 61.9499L335.017 65.8313ZM338.254 65.8737C339.73 65.5724 340.822 64.643 341.422 63.2958L337.768 61.6689C337.699 61.8225 337.643 61.8738 337.626 61.8876C337.612 61.899 337.571 61.9305 337.454 61.9545L338.254 65.8737ZM341.422 63.2958C348.182 48.1132 353.679 35.3524 357.912 25.0173L354.211 23.5013C349.998 33.7859 344.518 46.5071 337.768 61.6689L341.422 63.2958ZM357.923 24.9889C358.477 23.5775 358.54 21.9202 357.368 20.5715L354.348 23.1949C354.349 23.1955 354.345 23.1914 354.34 23.1825C354.334 23.1735 354.328 23.1619 354.322 23.1483C354.316 23.1348 354.312 23.1223 354.31 23.112C354.307 23.1019 354.307 23.0965 354.307 23.0974C354.308 23.1036 354.315 23.2333 354.199 23.5296L357.923 24.9889ZM357.471 20.7004C357.052 20.1287 356.464 19.6398 355.855 19.2181C355.224 18.7813 354.455 18.3394 353.571 17.8903L351.759 21.4564C352.546 21.8565 353.145 22.2074 353.578 22.5072C354.034 22.8222 354.207 23.0136 354.245 23.066L357.471 20.7004ZM353.607 17.9089L352.715 17.4331L350.832 20.9621L351.723 21.4378L353.607 17.9089ZM353.6 20.0111L354.684 17.5774L351.03 15.9504L349.946 18.3841L353.6 20.0111ZM351.915 18.5284C354.349 19.8271 357.382 21.2831 361.003 22.8954L362.63 19.2412C359.06 17.6517 356.12 16.2381 353.798 14.9994L351.915 18.5284ZM361.003 22.8954C364.674 24.5296 367.808 25.793 370.395 26.674L371.685 22.8876C369.253 22.0596 366.239 20.848 362.63 19.2412L361.003 22.8954ZM370.392 26.673C371.666 27.1091 372.66 27.4537 373.375 27.7076C373.734 27.8347 374.017 27.9372 374.229 28.016C374.335 28.0554 374.418 28.0873 374.482 28.1123C374.514 28.1247 374.538 28.1346 374.556 28.1421C374.575 28.1499 374.583 28.1534 374.583 28.1533L376.21 24.4991C375.754 24.2961 374.181 23.7421 371.688 22.8886L370.392 26.673ZM374.583 28.1533L375.898 28.739L377.525 25.0848L376.21 24.4991L374.583 28.1533ZM375.898 28.739C378.333 29.8231 380.03 31.6196 381.04 34.2486L384.774 32.8152C383.399 29.2336 380.966 26.6167 377.525 25.0848L375.898 28.739ZM381.047 34.2675C382.076 36.8691 382.013 39.4737 380.796 42.2073L384.45 43.8342C386.083 40.1657 386.209 36.4444 384.767 32.7964L381.047 34.2675ZM380.796 42.2073C379.478 45.1675 378.021 46.8734 376.571 47.6973L378.548 51.1748C381.038 49.7593 382.956 47.1884 384.45 43.8342L380.796 42.2073ZM376.571 47.6973C374.903 48.6455 372.322 49.4551 368.689 50.0361L369.32 53.986C373.154 53.373 376.277 52.4659 378.548 51.1748L376.571 47.6973ZM367.007 52.116C367.591 63.2245 368.354 72.09 369.303 78.6881L373.263 78.1188C372.339 71.6932 371.583 62.9638 371.002 51.9061L367.007 52.116ZM369.807 79.7527L372.721 82.942L375.674 80.2434L372.759 77.0542L369.807 79.7527ZM372.371 80.7792L371.316 83.1471L374.97 84.7741L376.025 82.4062L372.371 80.7792ZM373.957 82.1335C369.99 80.3673 366.722 79.0179 364.168 78.0961L362.81 81.8587C365.235 82.7337 368.404 84.0397 372.33 85.7877L373.957 82.1335ZM365.488 79.9124L364.549 51.0426L360.551 51.1726L361.49 80.0424L365.488 79.9124ZM363.364 49.2805L361.522 48.4606L359.895 52.1147L361.737 52.9347L363.364 49.2805ZM361.522 48.4606C358.955 47.3177 357.129 46.1735 355.938 45.0679L353.216 47.9988C354.851 49.5171 357.112 50.8758 359.895 52.1147L361.522 48.4606ZM352.762 45.694C348.512 54.8864 345.639 61.162 344.148 64.5095L347.802 66.1365C349.279 62.8187 352.141 56.5679 356.393 47.3727L352.762 45.694ZM344.148 64.5095C343.634 65.6644 343.589 66.9031 344.079 68.0925C344.537 69.2054 345.395 70.1173 346.397 70.8744L348.809 67.6837C348.12 67.1628 347.862 66.7763 347.778 66.5706C347.725 66.4412 347.711 66.3409 347.802 66.1365L344.148 64.5095ZM346.467 70.9249C347.211 71.4389 348.278 72.052 349.618 72.7552L351.477 69.2134C350.177 68.5308 349.281 68.0071 348.739 67.6332L346.467 70.9249ZM348.721 70.1708L347.637 72.6045L351.291 74.2315L352.375 71.7978L348.721 70.1708ZM350.278 71.5909L332.058 63.479L330.431 67.1331L348.651 75.2451L350.278 71.5909ZM354.581 44.1504C355.239 45.0992 356.238 45.9389 357.404 46.7017C358.591 47.4788 360.073 48.2533 361.82 49.031L363.447 45.3768C361.817 44.6512 360.542 43.9752 359.594 43.3545C358.623 42.7197 358.106 42.2145 357.868 41.8712L354.581 44.1504ZM361.82 49.031C364.217 50.0985 366.634 50.4015 368.975 49.7388L367.885 45.8901C366.619 46.2486 365.171 46.1444 363.447 45.3768L361.82 49.031ZM369.012 49.7279C371.101 49.0924 372.865 48.0726 374.151 46.5773L371.119 43.969C370.444 44.7533 369.404 45.4276 367.848 45.901L369.012 49.7279ZM374.124 46.6083C375.309 45.2869 376.266 43.8048 376.994 42.1699L373.34 40.5429C372.779 41.8021 372.049 42.9312 371.146 43.938L374.124 46.6083ZM376.994 42.1699C377.712 40.5571 378.166 38.9449 378.323 37.3403L374.342 36.9524C374.233 38.067 373.91 39.2616 373.34 40.5429L376.994 42.1699ZM378.315 37.4072C378.514 35.8944 378.482 34.4604 378.094 33.1869L374.267 34.3506C374.435 34.9002 374.503 35.718 374.349 36.8854L378.315 37.4072ZM378.116 33.2626C377.847 32.2336 377.477 31.2648 377.001 30.3631L373.464 32.2313C373.786 32.841 374.048 33.5198 374.246 34.2749L378.116 33.2626ZM376.972 30.3114C376.231 29.0029 375.275 27.7872 373.978 27.2098L372.351 30.864C372.458 30.9114 372.88 31.2025 373.492 32.283L376.972 30.3114ZM373.978 27.2098C371.925 26.2956 370.146 25.5899 368.653 25.1074C367.197 24.6366 365.872 24.3302 364.779 24.3193L364.74 28.3191C365.216 28.3238 366.077 28.4782 367.422 28.9134C368.732 29.3367 370.37 29.982 372.351 30.864L373.978 27.2098ZM363.955 24.4882L362.975 24.9189L364.584 28.5808L365.564 28.1502L363.955 24.4882ZM361.991 25.8543C361.025 27.7845 358.488 33.2446 354.405 42.1795L358.044 43.842C362.141 34.8764 364.641 29.496 365.568 27.6455L361.991 25.8543Z" fill="white" fill-opacity="0.1"/>
<path d="M404.633 106.429L403.295 104.942L401.809 106.281L403.147 107.767L404.633 106.429ZM406.559 104.694L407.918 103.227L406.578 101.986L405.221 103.208L406.559 104.694ZM409.669 106.642L409.203 108.586L409.243 108.596L409.283 108.604L409.669 106.642ZM413.661 106.341L414.099 108.293L414.112 108.29L414.125 108.287L413.661 106.341ZM422.325 103.481L421.635 101.604L421.631 101.606L422.325 103.481ZM460.17 89.5583L460.601 87.6055L460.029 87.479L459.479 87.6813L460.17 89.5583ZM462.193 90.837L463.458 89.2882L463.449 89.2807L462.193 90.837ZM464.141 92.5705L465.939 93.4466L466.53 92.2344L465.627 91.2322L464.141 92.5705ZM442.134 137.963L440.273 137.232L440.255 137.278L440.239 137.324L442.134 137.963ZM441.514 140.072L439.565 139.622L439.539 139.735L439.526 139.85L441.514 140.072ZM442.933 145.092L444.272 146.578L445.577 145.403L444.58 143.957L442.933 145.092ZM441.007 146.826L439.521 148.164L440.859 149.651L442.345 148.312L441.007 146.826ZM427.228 131.523L425.89 130.037L424.404 131.375L425.742 132.861L427.228 131.523ZM429.048 129.885L430.424 128.434L429.083 127.162L427.709 128.399L429.048 129.885ZM438.691 127.79L436.873 126.956L436.869 126.965L438.691 127.79ZM440.13 124.654L441.948 125.488L441.952 125.478L441.956 125.469L440.13 124.654ZM441.9 121.025L443.663 121.97L444.327 120.732L443.387 119.687L441.9 121.025ZM427.977 105.562L429.463 104.224L428.589 103.253L427.349 103.663L427.977 105.562ZM420.753 108.191L421.466 110.06L421.477 110.055L420.753 108.191ZM418.09 117.177L419.428 118.664L420.788 117.439L419.689 115.976L418.09 117.177ZM416.003 119.056L414.517 120.394L415.855 121.881L417.341 120.542L416.003 119.056ZM430.952 104.239L430.249 102.367L427.504 103.398L429.466 105.578L430.952 104.239ZM443.575 118.258L442.089 119.596L444.073 121.8L445.373 119.134L443.575 118.258ZM454.771 95.2912L456.569 96.1676L458.77 91.6525L454.068 93.419L454.771 95.2912ZM405.971 107.915L407.898 106.181L405.221 103.208L403.295 104.942L405.971 107.915ZM405.2 106.162C406.463 107.331 407.804 108.251 409.203 108.586L410.136 104.697C409.722 104.597 408.989 104.219 407.918 103.227L405.2 106.162ZM409.283 108.604C410.639 108.871 412.298 108.697 414.099 108.293L413.224 104.389C411.586 104.757 410.584 104.783 410.055 104.679L409.283 108.604ZM414.125 108.287C416.009 107.838 418.998 106.846 423.02 105.357L421.631 101.606C417.611 103.094 414.824 104.008 413.198 104.395L414.125 108.287ZM423.016 105.358L460.86 91.4353L459.479 87.6813L421.635 101.604L423.016 105.358ZM459.738 91.5112C459.64 91.4896 459.608 91.4676 459.66 91.4927C459.705 91.5142 459.786 91.5579 459.909 91.6355C460.157 91.7921 460.496 92.0378 460.937 92.3932L463.449 89.2807C462.944 88.8728 462.473 88.5237 462.046 88.2541C461.661 88.0105 461.152 87.7272 460.601 87.6055L459.738 91.5112ZM460.927 92.3857C461.913 93.1913 462.449 93.6806 462.655 93.9087L465.627 91.2322C465.191 90.7469 464.428 90.0805 463.458 89.2883L460.927 92.3857ZM462.343 91.6943C455.164 106.426 449.74 117.576 446.072 125.143C442.44 132.633 440.467 136.737 440.273 137.232L443.996 138.694C443.991 138.707 444.012 138.656 444.092 138.481C444.163 138.328 444.262 138.117 444.39 137.846C444.646 137.304 445.012 136.537 445.489 135.542C446.444 133.555 447.837 130.67 449.671 126.888C453.338 119.325 458.76 108.178 465.939 93.4466L462.343 91.6943ZM440.239 137.324C439.946 138.193 439.717 138.964 439.565 139.622L443.463 140.522C443.574 140.038 443.759 139.403 444.029 138.603L440.239 137.324ZM439.526 139.85C439.429 140.722 439.534 141.706 439.742 142.725L443.661 141.925C443.491 141.089 443.471 140.571 443.502 140.294L439.526 139.85ZM439.742 142.725C439.994 143.958 440.529 145.127 441.286 146.226L444.58 143.957C444.075 143.223 443.788 142.547 443.661 141.925L439.742 142.725ZM441.595 143.605L439.669 145.34L442.345 148.312L444.272 146.578L441.595 143.605ZM442.493 145.488L428.715 130.185L425.742 132.861L439.521 148.164L442.493 145.488ZM428.567 133.009L430.386 131.371L427.709 128.399L425.89 130.037L428.567 133.009ZM427.671 131.336C429.286 132.869 430.838 134.035 432.3 134.616C433.831 135.226 435.607 135.293 437.028 134.014L434.351 131.041C434.344 131.048 434.367 131.038 434.359 131.038C434.315 131.042 434.137 131.042 433.779 130.9C433.027 130.601 431.917 129.851 430.424 128.434L427.671 131.336ZM437.028 134.014C438.31 132.86 439.448 130.966 440.513 128.616L436.869 126.965C435.858 129.197 434.996 130.461 434.351 131.041L437.028 134.014ZM440.509 128.624L441.948 125.488L438.312 123.82L436.873 126.956L440.509 128.624ZM441.956 125.469C442.516 124.213 443.086 123.047 443.663 121.97L440.138 120.08C439.51 121.251 438.899 122.505 438.303 123.839L441.956 125.469ZM443.387 119.687L429.463 104.224L426.491 106.9L440.414 122.363L443.387 119.687ZM427.349 103.663C425.267 104.352 422.825 105.241 420.029 106.327L421.477 110.055C424.232 108.985 426.606 108.122 428.605 107.461L427.349 103.663ZM420.04 106.323C418.657 106.85 417.549 107.297 416.729 107.659C416.321 107.839 415.961 108.008 415.666 108.164C415.417 108.296 415.059 108.495 414.77 108.756L417.446 111.728C417.336 111.828 417.305 111.822 417.532 111.702C417.713 111.607 417.979 111.479 418.345 111.318C419.073 110.996 420.109 110.578 421.466 110.06L420.04 106.323ZM414.77 108.756C413.342 110.041 413.272 111.834 413.717 113.392C414.149 114.902 415.14 116.581 416.491 118.379L419.689 115.976C418.434 114.306 417.793 113.096 417.563 112.293C417.453 111.908 417.47 111.724 417.478 111.68C417.481 111.663 417.481 111.674 417.469 111.696C417.456 111.72 417.444 111.731 417.446 111.728L414.77 108.756ZM416.752 115.691L414.665 117.57L417.341 120.542L419.428 118.664L416.752 115.691ZM417.489 117.718L406.119 105.09L403.147 107.767L414.517 120.394L417.489 117.718ZM429.466 105.578L442.089 119.596L445.061 116.92L432.439 102.901L429.466 105.578ZM445.373 119.134L456.569 96.1676L452.973 94.4149L441.777 117.382L445.373 119.134ZM454.068 93.419L430.249 102.367L431.656 106.112L455.474 97.1635L454.068 93.419Z" fill="white" fill-opacity="0.1"/>
<path d="M495.823 171.718L496.441 173.62L496.452 173.616L496.462 173.613L495.823 171.718ZM502.169 169.58L501.551 167.678L501.541 167.681L501.531 167.685L502.169 169.58ZM505.388 168.534L506.006 170.436L506.157 170.387L506.298 170.315L505.388 168.534ZM506.417 164.945L508.372 164.524L508.371 164.519L506.417 164.945ZM505.647 161.41L505.029 159.507L503.307 160.067L503.693 161.835L505.647 161.41ZM508.18 160.586L510.082 159.968L509.464 158.066L507.562 158.684L508.18 160.586ZM512.385 173.528L513.587 175.127L514.729 174.269L514.288 172.91L512.385 173.528ZM482.283 215.787L480.635 214.653L476.855 220.148L483.035 217.64L482.283 215.787ZM514.631 204.671L513.959 202.787L513.955 202.788L514.631 204.671ZM517.515 202.598L515.701 201.756L515.684 201.792L515.669 201.829L517.515 202.598ZM517.148 197.039L516.53 195.137L514.806 195.697L515.194 197.468L517.148 197.039ZM519.75 196.194L521.652 195.576L521.034 193.674L519.132 194.292L519.75 196.194ZM525.134 212.765L525.752 214.667L527.654 214.049L527.036 212.147L525.134 212.765ZM522.669 213.566L520.83 214.351L521.548 216.033L523.287 215.468L522.669 213.566ZM519.018 208.62L519.559 206.695L519.172 206.586L518.773 206.635L519.018 208.62ZM516.762 208.899L516.516 206.914L516.355 206.934L516.199 206.98L516.762 208.899ZM483.738 219.099L483.12 217.197L483.108 217.201L483.096 217.205L483.738 219.099ZM472.552 222.885L470.65 223.503L471.275 225.429L473.193 224.78L472.552 222.885ZM471.239 218.845L469.67 217.605L469.006 218.445L469.337 219.463L471.239 218.845ZM478.373 208.881L476.715 207.763L476.708 207.774L478.373 208.881ZM484.799 199.298L483.145 198.174L483.139 198.182L483.133 198.191L484.799 199.298ZM501.84 173.926L503.503 175.038L506.709 170.242L501.222 172.024L501.84 173.926ZM480.818 180.757L480.2 178.855L480.175 178.863L480.151 178.872L480.818 180.757ZM465.122 187.901L463.127 187.753L463.126 187.768L463.125 187.783L465.122 187.901ZM465.655 192.573L466.273 194.475L467.999 193.914L467.609 192.142L465.655 192.573ZM462.985 193.441L461.083 194.059L461.701 195.961L463.603 195.343L462.985 193.441ZM457.734 177.28L457.116 175.378L455.214 175.996L455.832 177.898L457.734 177.28ZM460.199 176.479L462.038 175.694L461.32 174.012L459.581 174.577L460.199 176.479ZM465.059 181.184L464.71 179.214L464.701 179.216L465.059 181.184ZM496.462 173.613L502.808 171.475L501.531 167.685L495.185 169.822L496.462 173.613ZM502.787 171.482L506.006 170.436L504.77 166.632L501.551 167.678L502.787 171.482ZM506.298 170.315C507.346 169.779 508.059 168.889 508.379 167.773C508.676 166.737 508.607 165.614 508.372 164.524L504.462 165.365C504.623 166.114 504.58 166.51 504.534 166.671C504.515 166.737 504.5 166.747 504.51 166.736C504.52 166.723 504.52 166.732 504.477 166.754L506.298 170.315ZM508.371 164.519L507.601 160.984L503.693 161.835L504.463 165.37L508.371 164.519ZM506.265 163.312L508.798 162.488L507.562 158.684L505.029 159.507L506.265 163.312ZM506.278 161.204L510.483 174.146L514.288 172.91L510.082 159.968L506.278 161.204ZM511.184 171.929C510.783 172.23 510.323 172.763 509.908 173.264C509.434 173.837 508.833 174.607 508.11 175.564C506.661 177.48 504.678 180.206 502.166 183.733C497.139 190.789 489.961 201.098 480.635 214.653L483.93 216.92C493.253 203.37 500.416 193.083 505.424 186.054C507.929 182.537 509.886 179.847 511.301 177.976C512.009 177.038 512.571 176.321 512.991 175.813C513.469 175.234 513.633 175.093 513.587 175.127L511.184 171.929ZM483.035 217.64C485.458 216.657 489.908 215.109 496.438 212.987L495.202 209.183C488.677 211.303 484.102 212.89 481.531 213.934L483.035 217.64ZM496.438 212.987C503.03 210.846 509.319 208.701 515.306 206.553L513.955 202.788C508.01 204.921 501.759 207.053 495.202 209.183L496.438 212.987ZM515.303 206.554C516.986 205.954 518.676 205.014 519.362 203.366L515.669 201.829C515.682 201.798 515.65 201.905 515.372 202.105C515.092 202.306 514.641 202.543 513.959 202.787L515.303 206.554ZM519.33 203.439C519.747 202.54 519.774 201.436 519.709 200.452C519.638 199.386 519.427 198.096 519.101 196.61L515.194 197.468C515.499 198.857 515.665 199.93 515.717 200.716C515.775 201.585 515.67 201.823 515.701 201.756L519.33 203.439ZM517.766 198.941L520.368 198.096L519.132 194.292L516.53 195.137L517.766 198.941ZM517.848 196.812L523.232 213.383L527.036 212.147L521.652 195.576L517.848 196.812ZM524.516 210.863L522.051 211.664L523.287 215.468L525.752 214.667L524.516 210.863ZM524.508 212.781C523.844 211.225 523.152 209.914 522.415 208.915C521.708 207.957 520.778 207.037 519.559 206.695L518.477 210.546C518.424 210.531 518.686 210.599 519.196 211.29C519.676 211.94 520.226 212.938 520.83 214.351L524.508 212.781ZM518.773 206.635L516.516 206.914L517.007 210.884L519.263 210.605L518.773 206.635ZM516.199 206.98C504.984 210.27 493.957 213.676 483.12 217.197L484.356 221.002C495.156 217.492 506.146 214.098 517.325 210.818L516.199 206.98ZM483.096 217.205L471.911 220.991L473.193 224.78L484.379 220.994L483.096 217.205ZM474.454 222.267L473.141 218.227L469.337 219.463L470.65 223.503L474.454 222.267ZM472.809 220.085C474.998 217.314 477.408 213.945 480.039 209.988L476.708 207.774C474.118 211.67 471.772 214.944 469.67 217.605L472.809 220.085ZM480.032 209.999C482.689 206.055 484.833 202.857 486.464 200.406L483.133 198.191C481.509 200.633 479.37 203.823 476.715 207.763L480.032 209.999ZM486.453 200.423C489.804 195.492 495.488 187.029 503.503 175.038L500.178 172.815C492.163 184.807 486.486 193.258 483.145 198.174L486.453 200.423ZM501.222 172.024L480.2 178.855L481.436 182.659L502.458 175.829L501.222 172.024ZM480.151 178.872C471.484 181.941 466.766 183.598 465.931 183.87L467.167 187.674C468.067 187.381 472.862 185.696 481.486 182.642L480.151 178.872ZM465.931 183.87C465.102 184.139 464.386 184.649 463.881 185.402C463.396 186.125 463.187 186.95 463.127 187.753L467.116 188.049C467.141 187.714 467.212 187.616 467.203 187.629C467.197 187.638 467.182 187.656 467.16 187.672C467.14 187.687 467.136 187.684 467.167 187.674L465.931 183.87ZM463.125 187.783C463.04 189.232 463.26 190.995 463.702 193.003L467.609 192.142C467.2 190.288 467.064 188.937 467.118 188.019L463.125 187.783ZM465.037 190.671L462.367 191.538L463.603 195.343L466.273 194.475L465.037 190.671ZM464.887 192.822L459.636 176.662L455.832 177.898L461.083 194.059L464.887 192.822ZM458.352 179.182L460.817 178.381L459.581 174.577L457.116 175.378L458.352 179.182ZM458.36 177.265C459.142 179.096 460.043 180.632 461.13 181.685C462.27 182.788 463.737 183.457 465.416 183.151L464.701 179.216C464.617 179.231 464.393 179.276 463.913 178.811C463.38 178.296 462.733 177.319 462.038 175.694L458.36 177.265ZM465.407 183.153C466.744 182.917 469.591 182.124 473.803 180.842C478.07 179.545 483.86 177.708 491.169 175.333L489.933 171.529C482.633 173.9 476.871 175.729 472.64 177.015C468.355 178.319 465.76 179.029 464.71 179.214L465.407 183.153ZM491.169 175.333L496.441 173.62L495.205 169.816L489.933 171.529L491.169 175.333Z" fill="white" fill-opacity="0.1"/>
<path d="M498.162 309.377L497.953 311.366L497.966 311.367L498.162 309.377ZM519.587 311.484L519.796 309.494L519.783 309.493L519.587 311.484ZM523.415 305.37L523.624 303.381L521.804 303.19L521.452 304.986L523.415 305.37ZM526.208 305.664L528.197 305.873L528.406 303.884L526.417 303.675L526.208 305.664ZM524.432 322.563L524.223 324.552L526.212 324.761L526.421 322.772L524.432 322.563ZM521.854 322.292L519.854 322.315L519.875 324.095L521.645 324.281L521.854 322.292ZM519.305 316.232L519.683 314.268L519.654 314.263L519.624 314.258L519.305 316.232ZM518.024 316.025L517.674 317.994L517.689 317.997L517.705 317.999L518.024 316.025ZM503.963 314.113L503.707 316.096L503.963 314.113ZM481.429 310.152L480.523 311.934L480.523 311.934L481.429 310.152ZM476.477 306.301L474.899 307.53L474.9 307.531L476.477 306.301ZM473.996 300.972L472.049 301.43L472.054 301.45L472.059 301.47L473.996 300.972ZM473.26 294.886L475.26 294.896L475.26 294.872L475.26 294.847L473.26 294.886ZM475.674 280.878L473.898 279.958L473.898 279.958L475.674 280.878ZM479.287 276.117L478.059 274.539L478.044 274.551L478.029 274.563L479.287 276.117ZM483.828 273.554L483.153 271.671L483.128 271.68L483.103 271.69L483.828 273.554ZM491.757 272.505L491.548 274.494L491.557 274.495L491.757 272.505ZM523.731 275.504L523.75 273.504L523.703 273.503L523.656 273.505L523.731 275.504ZM525.935 274.505L524.337 273.302L524.307 273.342L524.279 273.384L525.935 274.505ZM527.261 270.155L527.47 268.166L525.604 267.97L525.289 269.82L527.261 270.155ZM529.911 270.434L531.9 270.643L532.109 268.654L530.12 268.445L529.911 270.434ZM527.833 290.197L527.624 292.186L529.613 292.395L529.822 290.406L527.833 290.197ZM525.184 289.918L523.186 289.834L523.106 291.711L524.975 291.908L525.184 289.918ZM525.187 286.444L527.181 286.283L527.179 286.257L527.176 286.231L525.187 286.444ZM522.567 283.128L522.777 281.139L522.769 281.138L522.567 283.128ZM503.584 281.205L503.375 283.194L503.383 283.195L503.584 281.205ZM497.856 280.603L498.065 278.614L498.047 278.612L498.029 278.61L497.856 280.603ZM486.316 280.186L485.744 278.27L485.744 278.27L486.316 280.186ZM482.567 282.109L481.41 280.478L481.375 280.502L481.342 280.528L482.567 282.109ZM479.198 286.606L477.401 285.729L477.392 285.747L477.383 285.766L479.198 286.606ZM477.52 299.822L475.567 300.253L475.572 300.28L475.579 300.306L477.52 299.822ZM479.412 303.858L480.966 302.6L480.966 302.6L479.412 303.858ZM483.547 306.537L484.258 304.668L484.245 304.663L484.232 304.658L483.547 306.537ZM497.966 311.367L519.391 313.474L519.783 309.493L498.358 307.386L497.966 311.367ZM519.378 313.473C521.289 313.673 522.668 312.526 523.528 311.152C524.361 309.821 524.946 307.962 525.378 305.755L521.452 304.986C521.051 307.035 520.581 308.322 520.138 309.029C519.925 309.369 519.777 309.48 519.739 309.503C519.725 309.512 519.732 309.505 519.758 309.499C519.784 309.493 519.8 309.495 519.796 309.495L519.378 313.473ZM523.206 307.359L525.999 307.653L526.417 303.675L523.624 303.381L523.206 307.359ZM524.219 305.455L522.443 322.354L526.421 322.772L528.197 305.873L524.219 305.455ZM524.641 320.574L522.063 320.303L521.645 324.281L524.223 324.552L524.641 320.574ZM523.854 322.268C523.831 320.305 523.599 318.569 523.028 317.211C522.431 315.791 521.361 314.591 519.683 314.268L518.927 318.196C518.965 318.203 518.988 318.212 519.031 318.252C519.089 318.306 519.208 318.447 519.341 318.762C519.619 319.423 519.834 320.558 519.854 322.315L523.854 322.268ZM519.624 314.258L518.343 314.051L517.705 317.999L518.986 318.207L519.624 314.258ZM518.374 314.056C516.987 313.809 512.237 313.164 504.219 312.129L503.707 316.096C511.784 317.139 516.407 317.769 517.674 317.994L518.374 314.056ZM504.219 312.129C496.177 311.091 490.911 310.44 488.449 310.182L488.031 314.16C490.437 314.413 495.654 315.057 503.707 316.096L504.219 312.129ZM488.449 310.182C486.307 309.956 484.273 309.354 482.336 308.369L480.523 311.934C482.893 313.14 485.399 313.883 488.031 314.16L488.449 310.182ZM482.336 308.369C480.37 307.369 478.977 306.254 478.054 305.071L474.9 307.531C476.273 309.292 478.182 310.744 480.523 311.934L482.336 308.369ZM478.054 305.072C477.151 303.912 476.428 302.4 475.933 300.475L472.059 301.47C472.66 303.811 473.591 305.851 474.899 307.53L478.054 305.072ZM475.943 300.515C475.474 298.52 475.251 296.649 475.26 294.896L471.26 294.876C471.25 296.982 471.518 299.169 472.049 301.43L475.943 300.515ZM475.26 294.847C475.224 293.02 475.338 290.803 475.614 288.183L471.636 287.765C471.349 290.492 471.221 292.883 471.261 294.925L475.26 294.847ZM475.614 288.183C475.867 285.778 476.487 283.658 477.45 281.797L473.898 279.958C472.681 282.309 471.935 284.92 471.636 287.765L475.614 288.183ZM477.45 281.797C478.46 279.846 479.509 278.512 480.546 277.672L478.029 274.563C476.428 275.859 475.068 277.698 473.898 279.958L477.45 281.797ZM480.515 277.696C481.724 276.755 483.068 275.996 484.553 275.418L483.103 271.69C481.267 272.404 479.583 273.353 478.059 274.539L480.515 277.696ZM484.503 275.437C486.959 274.557 489.3 274.258 491.548 274.494L491.966 270.516C489.058 270.21 486.113 270.611 483.153 271.671L484.503 275.437ZM491.557 274.495C501.708 275.514 509.452 276.273 514.787 276.774C517.454 277.024 519.525 277.21 520.996 277.331C522.383 277.445 523.398 277.517 523.805 277.502L523.656 273.505C523.677 273.504 523.642 273.506 523.51 273.5C523.392 273.495 523.232 273.487 523.026 273.473C522.615 273.447 522.049 273.404 521.324 273.344C519.876 273.225 517.823 273.041 515.161 272.791C509.839 272.292 502.105 271.533 491.957 270.515L491.557 274.495ZM523.711 277.504C525.211 277.518 526.666 276.993 527.592 275.625L524.279 273.384C524.255 273.42 524.243 273.427 524.216 273.44C524.172 273.459 524.037 273.507 523.75 273.504L523.711 277.504ZM527.533 275.707C527.997 275.092 528.315 274.296 528.559 273.497C528.813 272.662 529.035 271.652 529.233 270.491L525.289 269.82C525.108 270.887 524.92 271.716 524.732 272.331C524.534 272.982 524.379 273.247 524.337 273.302L527.533 275.707ZM527.052 272.144L529.702 272.423L530.12 268.445L527.47 268.166L527.052 272.144ZM527.922 270.225L525.844 289.988L529.822 290.406L531.9 270.643L527.922 270.225ZM528.042 288.208L525.393 287.929L524.975 291.908L527.624 292.186L528.042 288.208ZM527.182 290.003C527.248 288.446 527.254 287.188 527.181 286.283L523.194 286.605C523.246 287.257 523.25 288.316 523.186 289.834L527.182 290.003ZM527.176 286.231C527.044 284.995 526.693 283.793 525.937 282.837C525.135 281.821 524.023 281.27 522.777 281.139L522.358 285.117C522.64 285.146 522.728 285.228 522.799 285.317C522.917 285.467 523.112 285.842 523.199 286.656L527.176 286.231ZM522.769 281.138L503.786 279.215L503.383 283.195L522.366 285.118L522.769 281.138ZM503.794 279.216L498.065 278.614L497.647 282.592L503.375 283.194L503.794 279.216ZM498.029 278.61C495.407 278.383 493.125 278.167 491.183 277.963L490.765 281.941C492.738 282.148 495.044 282.366 497.683 282.595L498.029 278.61ZM491.183 277.963C489.138 277.748 487.292 277.808 485.744 278.27L486.888 282.103C487.732 281.851 488.992 281.755 490.765 281.941L491.183 277.963ZM485.744 278.27C484.29 278.704 482.844 279.46 481.41 280.478L483.724 283.74C484.897 282.908 485.951 282.383 486.888 282.103L485.744 278.27ZM481.342 280.528C479.76 281.754 478.468 283.539 477.401 285.729L480.996 287.482C481.898 285.632 482.852 284.419 483.792 283.69L481.342 280.528ZM477.383 285.766C476.341 288.02 475.688 290.539 475.398 293.301L479.376 293.719C479.627 291.325 480.182 289.242 481.014 287.445L477.383 285.766ZM475.398 293.301C475.115 295.988 475.143 298.33 475.567 300.253L479.473 299.392C479.178 298.054 479.116 296.188 479.376 293.719L475.398 293.301ZM475.579 300.306C476.04 302.158 476.781 303.787 477.858 305.117L480.966 302.6C480.335 301.82 479.814 300.758 479.46 299.339L475.579 300.306ZM477.858 305.117C479.055 306.595 480.788 307.66 482.862 308.416L484.232 304.658C482.587 304.058 481.563 303.337 480.966 302.6L477.858 305.117ZM482.836 308.407C486.242 309.702 491.325 310.669 497.953 311.366L498.371 307.387C491.824 306.699 487.163 305.773 484.258 304.668L482.836 308.407Z" fill="white" fill-opacity="0.1"/>
<path d="M475.058 399.672L475.513 397.724L474.068 397.386L473.326 398.672L475.058 399.672ZM483.043 401.538L482.587 403.486L482.672 403.505L482.757 403.518L483.043 401.538ZM485.24 401.476L484.618 399.576L484.535 399.603L484.454 399.637L485.24 401.476ZM492.375 389.55L494.368 389.38L494.368 389.38L492.375 389.55ZM480.431 384.317L481.244 386.145L481.297 386.121L481.349 386.094L480.431 384.317ZM478.399 385.389L477.38 383.668L477.351 383.685L477.324 383.703L478.399 385.389ZM468.001 392.023L466.926 390.336L466.922 390.339L468.001 392.023ZM447.314 388.974L448.906 387.764L448.906 387.764L447.314 388.974ZM444.447 382.996L442.54 383.599L442.548 383.624L442.557 383.65L444.447 382.996ZM456.75 359.67L457.873 358.016L456.707 357.224L455.569 358.056L456.75 359.67ZM469.093 367.379L470.825 368.379L471.825 366.647L470.093 365.647L469.093 367.379ZM467.761 369.686L467.228 371.614L468.72 372.026L469.493 370.686L467.761 369.686ZM463.89 368.615L464.424 366.687L464.424 366.687L463.89 368.615ZM458.77 367.404L458.991 365.417L458.914 365.408L458.837 365.406L458.77 367.404ZM455.927 368.008L455.187 366.15L454.943 366.247L454.733 366.404L455.927 368.008ZM448.717 380.639L446.739 380.932L446.742 380.953L446.745 380.973L448.717 380.639ZM464.765 384.667L465.824 386.364L465.85 386.348L465.876 386.331L464.765 384.667ZM470.176 381.057L469.107 379.366L469.086 379.379L469.065 379.393L470.176 381.057ZM475.566 377.767L476.523 379.524L476.523 379.524L475.566 377.767ZM478.081 376.725L477.677 374.766L477.62 374.778L477.563 374.793L478.081 376.725ZM478.93 376.55L479.333 378.509L479.353 378.505L479.373 378.5L478.93 376.55ZM494.529 383.228L496.238 382.189L496.233 382.182L496.229 382.175L494.529 383.228ZM496.215 391.684L498.214 391.738L498.214 391.73L498.214 391.722L496.215 391.684ZM485.566 408.399L486.167 410.307L486.413 410.229L486.631 410.092L485.566 408.399ZM484.448 408.751L483.448 410.483L484.21 410.923L485.049 410.659L484.448 408.751ZM473.798 401.854L472.066 400.854L471.135 402.467L472.677 403.511L473.798 401.854ZM474.603 401.619L482.587 403.486L483.498 399.591L475.513 397.724L474.603 401.619ZM482.757 403.518C483.813 403.67 485.034 403.739 486.026 403.316L484.454 399.637C484.553 399.595 484.537 399.627 484.303 399.634C484.087 399.64 483.769 399.622 483.328 399.558L482.757 403.518ZM485.862 403.377C488.339 402.566 490.341 400.385 492.013 397.489L488.549 395.489C487.053 398.08 485.694 399.223 484.618 399.576L485.862 403.377ZM492.013 397.489C493.662 394.632 494.582 391.893 494.368 389.38L490.382 389.72C490.496 391.055 490.02 392.941 488.549 395.489L492.013 397.489ZM494.368 389.38C494.125 386.538 492.189 384.39 489.45 382.808L487.45 386.272C489.616 387.523 490.296 388.715 490.382 389.72L494.368 389.38ZM489.45 382.808C486.211 380.939 482.816 380.834 479.513 382.54L481.349 386.094C483.417 385.026 485.368 385.07 487.45 386.272L489.45 382.808ZM479.619 382.49C478.932 382.795 478.183 383.192 477.38 383.668L479.419 387.109C480.131 386.687 480.738 386.37 481.244 386.145L479.619 382.49ZM477.324 383.703L466.926 390.336L469.077 393.709L479.475 387.075L477.324 383.703ZM466.922 390.339C464.422 391.942 462.065 392.736 459.83 392.847C457.606 392.957 455.369 392.397 453.084 391.077L451.084 394.541C453.952 396.197 456.945 396.994 460.028 396.842C463.099 396.69 466.123 395.603 469.081 393.706L466.922 390.339ZM453.084 391.077C450.993 389.87 449.656 388.75 448.906 387.764L445.722 390.185C446.925 391.767 448.768 393.204 451.084 394.541L453.084 391.077ZM448.906 387.764C448.12 386.73 447.247 384.972 446.337 382.342L442.557 383.65C443.516 386.422 444.554 388.65 445.722 390.185L448.906 387.764ZM446.354 382.393C445.432 379.475 445.997 375.815 448.656 371.209L445.192 369.209C442.235 374.331 441.149 379.195 442.54 383.599L446.354 382.393ZM448.656 371.209C450.724 367.627 453.793 364.312 457.931 361.285L455.569 358.056C451.07 361.349 447.588 365.06 445.192 369.209L448.656 371.209ZM455.627 361.325C459.493 363.95 463.649 366.545 468.093 369.111L470.093 365.647C465.725 363.125 461.652 360.581 457.873 358.016L455.627 361.325ZM467.361 366.379L466.029 368.686L469.493 370.686L470.825 368.379L467.361 366.379ZM468.295 367.758L464.424 366.687L463.357 370.543L467.228 371.614L468.295 367.758ZM464.424 366.687C461.876 365.983 460.011 365.531 458.991 365.417L458.548 369.392C459.194 369.464 460.743 369.819 463.357 370.543L464.424 366.687ZM458.837 365.406C457.655 365.366 456.422 365.658 455.187 366.15L456.667 369.866C457.591 369.498 458.253 369.388 458.702 369.403L458.837 365.406ZM454.733 366.404C452.355 368.174 450.378 370.451 448.791 373.2L452.255 375.2C453.596 372.876 455.222 371.026 457.121 369.612L454.733 366.404ZM448.791 373.2C447.236 375.893 446.382 378.52 446.739 380.932L450.696 380.347C450.533 379.244 450.882 377.578 452.255 375.2L448.791 373.2ZM446.745 380.973C447.196 383.634 449.269 385.679 452.036 387.276L454.036 383.812C451.647 382.433 450.842 381.208 450.689 380.306L446.745 380.973ZM452.036 387.276C456.398 389.794 461.111 389.304 465.824 386.364L463.707 382.97C459.93 385.327 456.823 385.421 454.036 383.812L452.036 387.276ZM465.876 386.331L471.286 382.72L469.065 379.393L463.655 383.004L465.876 386.331ZM471.244 382.747C473.96 381.032 475.701 379.971 476.523 379.524L474.61 376.011C473.654 376.532 471.801 377.664 469.107 379.366L471.244 382.747ZM476.523 379.524C477.305 379.098 477.996 378.818 478.598 378.656L477.563 374.793C476.592 375.053 475.606 375.468 474.61 376.011L476.523 379.524ZM478.484 378.684L479.333 378.509L478.527 374.591L477.677 374.766L478.484 378.684ZM479.373 378.5C482.362 377.821 484.998 378.206 487.399 379.592L489.399 376.128C486.064 374.202 482.387 373.714 478.487 374.599L479.373 378.5ZM487.399 379.592C490.156 381.184 491.892 382.77 492.828 384.281L496.229 382.175C494.813 379.889 492.462 377.897 489.399 376.128L487.399 379.592ZM492.82 384.267C493.731 385.767 494.282 388.145 494.215 391.646L498.214 391.722C498.287 387.876 497.714 384.617 496.238 382.189L492.82 384.267ZM494.215 391.629C494.156 393.808 493.35 396.39 491.604 399.414L495.068 401.414C497.018 398.037 498.131 394.798 498.214 391.738L494.215 391.629ZM491.604 399.414C489.902 402.362 487.546 404.791 484.501 406.706L486.631 410.092C490.202 407.845 493.026 404.951 495.068 401.414L491.604 399.414ZM484.965 406.492L483.847 406.844L485.049 410.659L486.167 410.307L484.965 406.492ZM485.448 407.019C483.439 405.859 479.943 403.597 474.919 400.198L472.677 403.511C477.697 406.907 481.301 409.243 483.448 410.483L485.448 407.019ZM475.53 402.854L476.79 400.672L473.326 398.672L472.066 400.854L475.53 402.854Z" fill="white" fill-opacity="0.1"/>
<path d="M406.617 445.641L408.444 444.827L407.438 442.572L405.441 444.023L406.617 445.641ZM408.594 450.078L409.77 451.696L411.081 450.744L410.421 449.264L408.594 450.078ZM396.304 459.008L395.991 460.983L396.809 461.113L397.479 460.626L396.304 459.008ZM395.198 458.833L393.366 459.636L393.805 460.637L394.885 460.808L395.198 458.833ZM393.569 455.121L392.393 453.503L391.09 454.45L391.738 455.925L393.569 455.121ZM404.79 446.456L406.768 450.892L410.421 449.264L408.444 444.827L404.79 446.456ZM407.419 448.46L395.128 457.39L397.479 460.626L409.77 451.696L407.419 448.46ZM396.617 457.032L395.51 456.857L394.885 460.808L395.991 460.983L396.617 457.032ZM397.029 458.029L395.4 454.317L391.738 455.925L393.366 459.636L397.029 458.029ZM394.745 456.739L407.792 447.259L405.441 444.023L392.393 453.503L394.745 456.739Z" fill="white" fill-opacity="0.1"/>
<path d="M353.284 513.862L355.24 513.447L354.846 511.594L352.975 511.886L353.284 513.862ZM353.838 516.468L354.253 518.424L356.21 518.009L355.794 516.052L353.838 516.468ZM337.78 519.881L336.056 520.894L336.786 522.137L338.196 521.837L337.78 519.881ZM336.742 518.114L338.467 517.101L338.436 517.048L338.402 516.998L336.742 518.114ZM312.644 482.31L314.303 481.194L311.714 477.347L310.693 481.87L312.644 482.31ZM304.98 524.866L302.999 524.593L302.995 524.617L302.993 524.642L304.98 524.866ZM304.75 526.902L305.166 528.858L306.576 528.559L306.738 527.126L304.75 526.902ZM288.693 530.315L286.737 530.731L287.153 532.687L289.109 532.271L288.693 530.315ZM288.139 527.709L287.654 525.769L285.782 526.237L286.183 528.125L288.139 527.709ZM294.983 524.93L296.589 526.121L296.626 526.071L296.66 526.019L294.983 524.93ZM285.65 485.177L287.591 484.694L287.59 484.692L285.65 485.177ZM285.16 483.22L287.1 482.735L287.086 482.676L287.067 482.618L285.16 483.22ZM283.294 480.673L283.944 478.781L283.871 478.756L283.797 478.737L283.294 480.673ZM278.692 480.841L276.736 481.257L277.126 483.092L278.983 482.82L278.692 480.841ZM278.138 478.235L277.723 476.279L275.766 476.695L276.182 478.651L278.138 478.235ZM297.647 474.089L299.603 473.673L299.187 471.717L297.231 472.133L297.647 474.089ZM298.2 476.695L298.745 478.619L300.546 478.109L300.157 476.279L298.2 476.695ZM295.036 477.735L295.785 479.59L295.795 479.586L295.805 479.581L295.036 477.735ZM293.117 479.1L294.593 480.45L294.617 480.424L294.64 480.397L293.117 479.1ZM292.551 481.281L290.594 481.697L290.598 481.713L290.601 481.728L292.551 481.281ZM301.794 517.151L299.866 517.682L303.747 517.584L301.794 517.151ZM310.535 471.349L310.119 469.393L308.774 469.679L308.559 471.037L310.535 471.349ZM313.281 470.766L314.918 469.616L314.159 468.534L312.865 468.809L313.281 470.766ZM340.307 509.26L338.67 510.409L342.284 508.958L340.307 509.26ZM326.683 470.788L324.726 471.204L325.107 472.992L326.922 472.773L326.683 470.788ZM326.099 468.041L325.683 466.085L323.727 466.501L324.143 468.457L326.099 468.041ZM342.72 464.508L344.676 464.092L344.26 462.136L342.304 462.552L342.72 464.508ZM343.259 467.044L343.888 468.942L345.587 468.379L345.215 466.628L343.259 467.044ZM339.281 469.803L337.499 468.895L337.489 468.915L337.479 468.936L339.281 469.803ZM338.85 475.047L336.866 475.299L336.868 475.317L336.871 475.335L338.85 475.047ZM344.386 509.055L346.349 508.674L346.349 508.674L344.386 509.055ZM345.154 513.014L343.19 513.395L343.194 513.412L343.197 513.43L345.154 513.014ZM347.43 514.371L347.537 512.373L347.492 512.371L347.448 512.371L347.43 514.371ZM351.327 514.278L351.881 516.884L355.794 516.052L355.24 513.447L351.327 514.278ZM353.422 514.512L337.365 517.925L338.196 521.837L354.253 518.424L353.422 514.512ZM339.505 518.868L338.467 517.101L335.018 519.128L336.056 520.894L339.505 518.868ZM338.402 516.998L314.303 481.194L310.984 483.427L335.083 519.231L338.402 516.998ZM310.693 481.87C307.596 495.588 305.032 509.829 302.999 524.593L306.961 525.139C308.98 510.481 311.524 496.352 314.595 482.751L310.693 481.87ZM302.993 524.642L302.763 526.678L306.738 527.126L306.967 525.09L302.993 524.642ZM304.334 524.946L288.277 528.359L289.109 532.271L305.166 528.858L304.334 524.946ZM290.649 529.899L290.095 527.293L286.183 528.125L286.737 530.731L290.649 529.899ZM288.625 529.649C290.623 529.15 292.273 528.647 293.538 528.133C294.171 527.876 294.747 527.6 295.237 527.299C295.709 527.009 296.213 526.629 296.589 526.121L293.377 523.738C293.429 523.668 293.404 523.731 293.143 523.891C292.901 524.04 292.541 524.221 292.033 524.427C291.016 524.84 289.569 525.29 287.654 525.769L288.625 529.649ZM296.66 526.019C297.087 525.362 297.442 524.454 297.222 523.423L293.31 524.255C293.273 524.081 293.29 523.938 293.312 523.855C293.331 523.782 293.347 523.776 293.305 523.84L296.66 526.019ZM297.222 523.423C297.143 523.049 293.921 510.097 287.591 484.694L283.709 485.661C286.88 498.384 289.266 507.967 290.869 514.41C291.67 517.631 292.275 520.068 292.685 521.719C292.889 522.544 293.045 523.173 293.151 523.605C293.204 523.821 293.245 523.987 293.273 524.103C293.306 524.239 293.313 524.271 293.31 524.255L297.222 523.423ZM287.59 484.692L287.1 482.735L283.22 483.706L283.71 485.663L287.59 484.692ZM287.067 482.618C286.57 481.043 285.678 479.377 283.944 478.781L282.644 482.564C282.567 482.538 282.611 482.517 282.743 482.696C282.883 482.888 283.068 483.238 283.253 483.823L287.067 482.618ZM283.797 478.737C283.101 478.556 282.281 478.524 281.447 478.554C280.582 478.586 279.562 478.692 278.402 478.862L278.983 482.82C280.059 482.662 280.924 482.576 281.593 482.552C282.293 482.526 282.656 482.573 282.791 482.609L283.797 478.737ZM280.649 480.425L280.095 477.82L276.182 478.651L276.736 481.257L280.649 480.425ZM278.554 480.192L298.062 476.045L297.231 472.133L277.723 476.279L278.554 480.192ZM295.69 474.505L296.244 477.11L300.157 476.279L299.603 473.673L295.69 474.505ZM297.655 474.77C296.243 475.17 295.098 475.543 294.266 475.889L295.805 479.581C296.416 479.327 297.381 479.005 298.745 478.619L297.655 474.77ZM294.286 475.881C293.235 476.306 292.326 476.945 291.595 477.803L294.64 480.397C294.93 480.056 295.299 479.786 295.785 479.59L294.286 475.881ZM291.642 477.75C290.625 478.861 290.288 480.255 290.594 481.697L294.507 480.866C294.472 480.701 294.488 480.626 294.493 480.605C294.498 480.588 294.512 480.538 294.593 480.45L291.642 477.75ZM290.601 481.728C292.677 490.8 295.767 502.788 299.866 517.682L303.723 516.621C299.631 501.751 296.558 489.826 294.5 480.835L290.601 481.728ZM303.747 517.584C307.238 501.84 310.159 486.532 312.51 471.662L308.559 471.037C306.222 485.821 303.316 501.048 299.842 516.719L303.747 517.584ZM310.95 473.306L313.697 472.722L312.865 468.809L310.119 469.393L310.95 473.306ZM311.644 471.915L338.67 510.409L341.944 508.111L314.918 469.616L311.644 471.915ZM342.284 508.958C340.408 496.657 338.168 484.383 335.566 472.138L331.653 472.97C334.24 485.14 336.465 497.337 338.33 509.561L342.284 508.958ZM335.566 472.138C335.169 470.271 333.671 469.307 332.103 468.907C330.589 468.521 328.654 468.536 326.444 468.802L326.922 472.773C328.97 472.527 330.319 472.58 331.114 472.783C331.495 472.88 331.643 472.986 331.675 473.014C331.688 473.024 331.68 473.02 331.667 472.999C331.654 472.978 331.652 472.964 331.653 472.97L335.566 472.138ZM328.639 470.372L328.055 467.625L324.143 468.457L324.726 471.204L328.639 470.372ZM326.515 469.997L343.135 466.465L342.304 462.552L325.683 466.085L326.515 469.997ZM340.763 464.924L341.302 467.459L345.215 466.628L344.676 464.092L340.763 464.924ZM342.629 465.145C340.385 465.889 338.445 467.039 337.499 468.895L341.063 470.711C341.295 470.256 342.007 469.566 343.888 468.942L342.629 465.145ZM337.479 468.936C336.651 470.657 336.558 472.87 336.866 475.299L340.834 474.795C340.56 472.637 340.755 471.353 341.084 470.67L337.479 468.936ZM336.871 475.335C339.007 490.006 340.858 501.379 342.423 509.437L346.349 508.674C344.802 500.709 342.963 489.409 340.829 474.759L336.871 475.335ZM342.422 509.436L343.19 513.395L347.117 512.633L346.349 508.674L342.422 509.436ZM343.197 513.43C343.404 514.401 343.966 515.219 344.841 515.74C345.64 516.217 346.558 516.363 347.411 516.371L347.448 512.371C347.224 512.369 347.071 512.348 346.975 512.327C346.88 512.306 346.862 512.288 346.889 512.304C346.922 512.324 346.982 512.37 347.037 512.448C347.091 512.524 347.107 512.585 347.11 512.598L343.197 513.43ZM347.322 516.368C348.832 516.449 350.954 516.25 353.592 515.838L352.975 511.886C350.389 512.29 348.609 512.431 347.537 512.373L347.322 516.368Z" fill="white" fill-opacity="0.1"/>
<path d="M247.127 476.935L249.083 477.351L249.499 475.394L247.543 474.979L247.127 476.935ZM246.588 479.47L246.351 481.456L248.165 481.673L248.544 479.886L246.588 479.47ZM242.928 479.723L242.162 477.875L242.124 477.891L242.086 477.908L242.928 479.723ZM239.874 482.312L238.373 480.991L238.365 481.001L238.356 481.011L239.874 482.312ZM234.546 489.719L236.208 490.831L236.21 490.828L234.546 489.719ZM212.113 523.227L212.912 525.06L213.449 524.826L213.775 524.339L212.113 523.227ZM209.725 523.381L209.611 525.378L209.623 525.379L209.725 523.381ZM207.13 523.124L205.16 523.472L205.395 524.8L206.714 525.081L207.13 523.124ZM198.252 473.465L200.188 472.962L200.176 472.915L200.161 472.869L198.252 473.465ZM197.515 471.395L199.356 470.614L199.31 470.507L199.253 470.406L197.515 471.395ZM193.416 468.168L191.46 467.752L191.094 469.47L192.751 470.054L193.416 468.168ZM193.955 465.633L194.371 463.676L192.414 463.261L191.998 465.217L193.955 465.633ZM214.097 469.914L216.053 470.33L216.469 468.374L214.513 467.958L214.097 469.914ZM213.588 472.309L213.327 474.291L215.16 474.533L215.544 472.724L213.588 472.309ZM207.017 479.671L208.978 479.278L208.976 479.268L207.017 479.671ZM207.697 483.055L205.736 483.448L205.738 483.459L205.74 483.469L207.697 483.055ZM208.397 487.031L206.416 487.303L206.607 488.695L207.982 488.987L208.397 487.031ZM228.751 491.357L228.335 493.314L229.613 493.585L230.375 492.525L228.751 491.357ZM233.05 484.984L231.374 483.892L231.368 483.901L233.05 484.984ZM229.922 476.149L227.966 475.733L227.586 477.523L229.335 478.06L229.922 476.149ZM230.506 473.402L230.922 471.446L228.966 471.03L228.55 472.986L230.506 473.402ZM227.121 494.176L228.791 495.277L230.405 492.83L227.537 492.22L227.121 494.176ZM208.669 490.254L209.085 488.298L206.184 487.681L206.7 490.602L208.669 490.254ZM213.111 515.415L211.141 515.763L212.015 520.71L214.781 516.517L213.111 515.415ZM245.171 476.519L244.632 479.054L248.544 479.886L249.083 477.351L245.171 476.519ZM246.825 477.484C245.116 477.28 243.491 477.324 242.162 477.875L243.693 481.57C244.086 481.407 244.901 481.283 246.351 481.456L246.825 477.484ZM242.086 477.908C240.833 478.489 239.593 479.605 238.373 480.991L241.376 483.634C242.484 482.374 243.28 481.764 243.769 481.537L242.086 477.908ZM238.356 481.011C237.095 482.481 235.26 485.041 232.882 488.609L236.21 490.828C238.587 487.261 240.305 484.883 241.393 483.614L238.356 481.011ZM232.884 488.606L210.451 522.114L213.775 524.339L236.208 490.831L232.884 488.606ZM211.314 521.393C211.406 521.353 211.446 521.352 211.388 521.362C211.339 521.371 211.248 521.384 211.103 521.393C210.81 521.412 210.392 521.413 209.826 521.384L209.623 525.379C210.272 525.412 210.858 525.417 211.362 525.385C211.817 525.355 212.395 525.286 212.912 525.06L211.314 521.393ZM209.838 521.385C208.567 521.312 207.846 521.232 207.545 521.168L206.714 525.081C207.352 525.216 208.361 525.307 209.611 525.378L209.838 521.385ZM209.099 522.776C206.248 506.639 204.082 494.43 202.602 486.151C201.137 477.957 200.322 473.477 200.188 472.962L196.316 473.968C196.313 473.955 196.326 474.009 196.364 474.197C196.397 474.363 196.441 474.591 196.497 474.886C196.608 475.475 196.763 476.311 196.961 477.396C197.357 479.565 197.925 482.718 198.665 486.855C200.144 495.13 202.309 507.335 205.16 523.472L209.099 522.776ZM200.161 472.869C199.887 471.993 199.619 471.235 199.356 470.614L195.673 472.176C195.867 472.633 196.091 473.256 196.343 474.062L200.161 472.869ZM199.253 470.406C198.819 469.644 198.156 468.909 197.389 468.207L194.688 471.158C195.317 471.734 195.638 472.141 195.776 472.384L199.253 470.406ZM197.389 468.207C196.46 467.357 195.341 466.726 194.081 466.282L192.751 470.054C193.591 470.351 194.22 470.729 194.688 471.158L197.389 468.207ZM195.372 468.584L195.911 466.049L191.998 465.217L191.46 467.752L195.372 468.584ZM193.539 467.589L213.681 471.87L214.513 467.958L194.371 463.676L193.539 467.589ZM212.141 469.498L211.632 471.893L215.544 472.724L216.053 470.33L212.141 469.498ZM213.849 470.326C211.641 470.035 209.7 470.004 208.176 470.393C206.578 470.8 205.102 471.79 204.705 473.659L208.617 474.491C208.62 474.481 208.607 474.503 208.613 474.497C208.646 474.469 208.79 474.364 209.164 474.269C209.948 474.069 211.286 474.023 213.327 474.291L213.849 470.326ZM204.705 473.659C204.346 475.346 204.538 477.548 205.058 480.075L208.976 479.268C208.483 476.869 208.437 475.339 208.617 474.491L204.705 473.659ZM205.057 480.065L205.736 483.448L209.658 482.661L208.978 479.278L205.057 480.065ZM205.74 483.469C206.025 484.814 206.25 486.092 206.416 487.303L210.379 486.76C210.199 485.443 209.956 484.07 209.653 482.64L205.74 483.469ZM207.982 488.987L228.335 493.314L229.167 489.401L208.813 485.075L207.982 488.987ZM230.375 492.525C231.655 490.743 233.108 488.589 234.731 486.067L231.368 483.901C229.768 486.386 228.355 488.481 227.127 490.19L230.375 492.525ZM234.725 486.076C235.533 484.837 236.168 483.824 236.618 483.05C236.843 482.663 237.034 482.316 237.181 482.016C237.306 481.763 237.478 481.391 237.558 481.011L233.646 480.179C233.677 480.033 233.705 480.02 233.592 480.25C233.502 480.434 233.361 480.693 233.16 481.039C232.76 481.727 232.168 482.674 231.374 483.892L234.725 486.076ZM237.558 481.011C237.958 479.131 236.961 477.64 235.684 476.641C234.448 475.673 232.66 474.897 230.51 474.237L229.335 478.06C231.331 478.674 232.562 479.276 233.219 479.79C233.535 480.038 233.629 480.197 233.649 480.237C233.656 480.252 233.65 480.244 233.647 480.218C233.643 480.191 233.647 480.175 233.646 480.179L237.558 481.011ZM231.879 476.564L232.463 473.818L228.55 472.986L227.966 475.733L231.879 476.564ZM230.09 475.358L246.711 478.891L247.543 474.979L230.922 471.446L230.09 475.358ZM227.537 492.22L209.085 488.298L208.253 492.21L226.705 496.132L227.537 492.22ZM206.7 490.602L211.141 515.763L215.081 515.068L210.639 489.906L206.7 490.602ZM214.781 516.517L228.791 495.277L225.452 493.075L211.441 514.314L214.781 516.517Z" fill="white" fill-opacity="0.1"/>
<path d="M159.817 448.864L161.435 450.04L162.61 448.422L160.992 447.246L159.817 448.864ZM158.251 451.019L157.185 452.712L158.769 453.709L159.869 452.195L158.251 451.019ZM155.36 449.364L154.483 451.162L154.493 451.166L154.503 451.171L155.36 449.364ZM153.062 448.852L153.046 450.852L153.081 450.852L153.117 450.851L153.062 448.852ZM127.008 483.854L125.355 482.728L125.347 482.741L125.338 482.754L127.008 483.854ZM126.713 486.221L128.536 485.399L128.502 485.324L128.462 485.252L126.713 486.221ZM129.377 489.046L130.665 487.516L130.649 487.503L130.634 487.491L129.377 489.046ZM130.15 489.697L131.768 490.873L132.863 489.366L131.438 488.167L130.15 489.697ZM128.584 491.852L127.296 493.382L128.94 494.765L130.202 493.028L128.584 491.852ZM112.465 480.23L111.438 481.946L111.441 481.948L112.465 480.23ZM102.677 469.203L104.653 468.89L104.651 468.88L104.649 468.87L102.677 469.203ZM120.118 454.018L120.016 456.015L121.812 456.107L122.093 454.331L120.118 454.018ZM123.376 427.729L125.372 427.862L125.413 427.247L125.101 426.716L123.376 427.729ZM121.188 424.003L119.57 422.827L118.801 423.887L119.464 425.016L121.188 424.003ZM122.712 421.906L123.888 420.288L122.269 419.112L121.094 420.731L122.712 421.906ZM131.327 427.81L133.296 428.162L133.535 426.826L132.382 426.111L131.327 427.81ZM126.243 456.244L124.274 455.892L124.054 457.125L125.068 457.862L126.243 456.244ZM133.091 462.376L131.455 463.526L133.04 465.781L134.692 463.574L133.091 462.376ZM144.642 441.577L146.153 440.267L146.125 440.235L146.096 440.203L144.642 441.577ZM142.116 439.297L140.498 438.121L139.396 439.638L140.838 440.836L142.116 439.297ZM143.682 437.141L144.857 435.523L143.239 434.348L142.064 435.966L143.682 437.141ZM130.747 465.479L132.354 466.67L133.032 465.756L132.592 464.706L130.747 465.479ZM119.807 458.242L119.675 456.247L119.655 456.248L119.636 456.25L119.807 458.242ZM115.166 459.854L116.345 461.469L116.361 461.457L116.378 461.445L115.166 459.854ZM109.86 467.034L111.745 467.702L111.756 467.67L111.766 467.638L109.86 467.034ZM109.305 470.37L111.303 470.277L111.301 470.237L111.298 470.198L109.305 470.37ZM109.72 472.984L107.795 473.53L107.804 473.559L107.812 473.587L109.72 472.984ZM118.928 480.031L118.493 481.983L118.913 482.077L119.335 481.989L118.928 480.031ZM119.976 479.813L120.383 481.772L121.089 481.625L121.539 481.061L119.976 479.813ZM158.199 447.689L156.633 449.844L159.869 452.195L161.435 450.04L158.199 447.689ZM159.316 449.327C158.074 448.545 157.031 447.943 156.217 447.557L154.503 451.171C155.101 451.455 155.985 451.957 157.185 452.712L159.316 449.327ZM156.236 447.566C155.218 447.07 154.133 446.822 153.007 446.852L153.117 450.851C153.565 450.839 154.012 450.932 154.483 451.162L156.236 447.566ZM153.078 446.852C151.572 446.84 150.31 447.522 149.444 448.715L152.68 451.066C152.779 450.93 152.845 450.891 152.864 450.881C152.88 450.873 152.926 450.851 153.046 450.852L153.078 446.852ZM149.444 448.715C139.675 462.16 131.644 473.499 125.355 482.728L128.661 484.981C134.919 475.796 142.924 464.493 152.68 451.066L149.444 448.715ZM125.338 482.754C124.504 484.019 124.098 485.627 124.963 487.19L128.462 485.252C128.462 485.251 128.465 485.256 128.468 485.266C128.472 485.276 128.476 485.288 128.478 485.303C128.481 485.317 128.482 485.33 128.483 485.341C128.483 485.351 128.482 485.356 128.483 485.356C128.483 485.349 128.503 485.221 128.678 484.955L125.338 482.754ZM124.889 487.042C125.181 487.689 125.654 488.289 126.162 488.828C126.689 489.387 127.349 489.979 128.12 490.602L130.634 487.491C129.947 486.935 129.434 486.468 129.072 486.084C128.693 485.682 128.563 485.458 128.536 485.399L124.889 487.042ZM128.089 490.576L128.862 491.227L131.438 488.167L130.665 487.516L128.089 490.576ZM128.532 488.521L126.966 490.677L130.202 493.028L131.768 490.873L128.532 488.521ZM129.872 490.322C127.761 488.546 125.098 486.491 121.891 484.161L119.539 487.397C122.701 489.694 125.283 491.688 127.296 493.382L129.872 490.322ZM121.891 484.161C118.64 481.799 115.837 479.912 113.489 478.512L111.441 481.948C113.647 483.263 116.344 485.075 119.539 487.397L121.891 484.161ZM113.492 478.514C112.337 477.822 111.437 477.279 110.789 476.882C110.465 476.683 110.209 476.524 110.019 476.403C109.923 476.342 109.848 476.293 109.791 476.256C109.763 476.237 109.741 476.222 109.725 476.211C109.708 476.199 109.701 476.194 109.701 476.195L107.35 479.431C107.754 479.724 109.177 480.593 111.438 481.946L113.492 478.514ZM109.701 476.195L108.536 475.348L106.185 478.584L107.35 479.431L109.701 476.195ZM108.536 475.348C106.38 473.781 105.093 471.671 104.653 468.89L100.702 469.516C101.302 473.305 103.138 476.37 106.185 478.584L108.536 475.348ZM104.649 468.87C104.184 466.111 104.787 463.577 106.546 461.156L103.31 458.805C100.95 462.054 100.052 465.667 100.705 469.536L104.649 468.87ZM106.546 461.156C108.451 458.534 110.23 457.169 111.819 456.664L110.609 452.852C107.879 453.719 105.468 455.835 103.31 458.805L106.546 461.156ZM111.819 456.664C113.648 456.084 116.341 455.828 120.016 456.015L120.219 452.021C116.342 451.823 113.099 452.061 110.609 452.852L111.819 456.664ZM122.093 454.331C123.832 443.343 124.928 434.513 125.372 427.862L121.381 427.596C120.949 434.073 119.873 442.769 118.142 453.705L122.093 454.331ZM125.101 426.716L122.913 422.99L119.464 425.016L121.652 428.741L125.101 426.716ZM122.806 425.179L124.33 423.082L121.094 420.731L119.57 422.827L122.806 425.179ZM121.536 423.524C125.049 426.076 127.965 428.076 130.272 429.509L132.382 426.111C130.192 424.75 127.364 422.814 123.888 420.288L121.536 423.524ZM129.359 427.458L124.274 455.892L128.212 456.596L133.296 428.162L129.359 427.458ZM125.068 457.862L126.699 459.047L129.05 455.811L127.419 454.626L125.068 457.862ZM126.699 459.047C128.972 460.698 130.52 462.197 131.455 463.526L134.727 461.225C133.443 459.4 131.514 457.601 129.05 455.811L126.699 459.047ZM134.692 463.574C140.761 455.466 144.876 449.925 147.03 446.961L143.793 444.609C141.659 447.548 137.56 453.067 131.49 461.177L134.692 463.574ZM147.03 446.961C147.773 445.938 148.074 444.735 147.842 443.47C147.626 442.287 146.975 441.216 146.153 440.267L143.13 442.887C143.696 443.54 143.868 443.971 143.908 444.19C143.933 444.327 143.925 444.428 143.793 444.609L147.03 446.961ZM146.096 440.203C145.474 439.546 144.558 438.724 143.393 437.758L140.838 440.836C141.969 441.774 142.736 442.472 143.188 442.951L146.096 440.203ZM143.734 440.472L145.3 438.317L142.064 435.966L140.498 438.121L143.734 440.472ZM142.506 438.76L158.641 450.482L160.992 447.246L144.857 435.523L142.506 438.76ZM132.592 464.706C132.146 463.641 131.343 462.612 130.361 461.623C129.361 460.616 128.073 459.551 126.526 458.427L124.175 461.663C125.618 462.711 126.724 463.638 127.523 464.442C128.34 465.265 128.741 465.866 128.903 466.252L132.592 464.706ZM126.526 458.427C124.403 456.884 122.102 456.085 119.675 456.247L119.94 460.238C121.253 460.151 122.648 460.554 124.175 461.663L126.526 458.427ZM119.636 456.25C117.46 456.437 115.522 457.068 113.954 458.263L116.378 461.445C117.201 460.818 118.358 460.374 119.979 460.235L119.636 456.25ZM113.987 458.238C112.553 459.284 111.308 460.535 110.257 461.983L113.493 464.334C114.303 463.219 115.252 462.267 116.345 461.469L113.987 458.238ZM110.257 461.983C109.219 463.411 108.439 464.894 107.953 466.431L111.766 467.638C112.104 466.57 112.668 465.469 113.493 464.334L110.257 461.983ZM107.974 466.367C107.465 467.805 107.199 469.215 107.313 470.541L111.298 470.198C111.249 469.626 111.352 468.812 111.745 467.702L107.974 466.367ZM107.308 470.462C107.357 471.525 107.517 472.549 107.795 473.53L111.644 472.438C111.455 471.775 111.339 471.056 111.303 470.277L107.308 470.462ZM107.812 473.587C108.265 475.021 108.948 476.409 110.096 477.243L112.447 474.007C112.353 473.939 112.001 473.566 111.627 472.382L107.812 473.587ZM110.096 477.243C111.915 478.564 113.508 479.624 114.868 480.407C116.194 481.17 117.426 481.745 118.493 481.983L119.364 478.079C118.899 477.975 118.089 477.645 116.863 476.94C115.67 476.254 114.202 475.282 112.447 474.007L110.096 477.243ZM119.335 481.989L120.383 481.772L119.57 477.855L118.522 478.073L119.335 481.989ZM121.539 481.061C122.886 479.374 126.502 474.561 132.354 466.67L129.141 464.287C123.269 472.205 119.705 476.948 118.413 478.566L121.539 481.061Z" fill="white" fill-opacity="0.1"/>
<path d="M64.7275 391.344L62.9955 392.344L63.999 394.082L65.7336 393.072L64.7275 391.344ZM82.5247 380.985L81.5247 379.253L81.5186 379.257L82.5247 380.985ZM83.5332 376.828L85.4467 376.246L85.4342 376.205L85.4199 376.164L83.5332 376.828ZM82.153 373.717L81.153 371.985L79.5291 372.923L80.3601 374.604L82.153 373.717ZM84.4601 372.385L86.1921 371.385L85.1921 369.653L83.4601 370.653L84.4601 372.385ZM94.4321 389.657L95.4321 391.389L97.1641 390.389L96.1641 388.657L94.4321 389.657ZM92.125 390.989L90.4633 392.102L91.5045 393.657L93.125 392.721L92.125 390.989ZM90.1572 388.301L88.6253 389.587L88.6322 389.595L88.6391 389.603L90.1572 388.301ZM88.2666 386.898L87.4384 388.719L87.4707 388.734L87.5034 388.747L88.2666 386.898ZM78.6686 391.442L79.699 393.156L79.6991 393.156L78.6686 391.442ZM50.4442 408.652L49.3858 406.955L49.3761 406.961L49.3666 406.967L50.4442 408.652ZM49.2119 410.694L51.2119 410.685L51.2115 410.602L51.2044 410.52L49.2119 410.694ZM50.4604 414.296L52.2551 413.414L52.2489 413.401L52.2426 413.389L50.4604 414.296ZM50.938 415.267L51.938 417L53.5585 416.064L52.7328 414.385L50.938 415.267ZM48.6309 416.599L46.8989 417.599L47.8989 419.332L49.6309 418.332L48.6309 416.599ZM41.9349 405.002L39.9824 404.568L39.8139 405.328L40.2029 406.002L41.9349 405.002ZM42.1888 403.857L41.2723 402.08L40.4393 402.509L40.2363 403.424L42.1888 403.857ZM62.1086 392.856L63.1086 394.588L64.8994 393.554L63.8064 391.798L62.1086 392.856ZM54.5829 389.469L54.1097 391.412L54.1104 391.412L54.5829 389.469ZM42.2579 387.273L42.0283 389.26L42.0381 389.261L42.0479 389.262L42.2579 387.273ZM35.6882 387.99L37.6577 387.642L37.6396 387.54L37.611 387.44L35.6882 387.99ZM37.006 391.137L38.006 392.869L39.6445 391.923L38.7909 390.234L37.006 391.137ZM34.6989 392.469L32.9669 393.469L33.9669 395.201L35.6989 394.201L34.6989 392.469ZM26.3469 378.002L25.3469 376.27L23.6149 377.27L24.6149 379.002L26.3469 378.002ZM28.654 376.67L30.3104 375.55L29.2668 374.007L27.654 374.938L28.654 376.67ZM31.2312 379.838L32.4888 378.283L32.4595 378.259L32.4293 378.237L31.2312 379.838ZM50.6166 385.191L50.223 387.152L50.2315 387.153L50.2399 387.155L50.6166 385.191ZM57.5347 386.517L57.1581 388.482L58.6956 388.776L59.3511 387.355L57.5347 386.517ZM70.1708 356.276L72.0784 356.877L72.219 356.431L72.1471 355.968L70.1708 356.276ZM69.4353 351.546L68.4353 349.814L67.2485 350.499L67.4591 351.853L69.4353 351.546ZM71.6801 350.25L73.4121 349.25L72.4121 347.518L70.6801 348.518L71.6801 350.25ZM77.4015 359.584L79.2228 360.41L79.6861 359.389L79.0564 358.461L77.4015 359.584ZM64.012 389.096L65.8324 389.924L65.8333 389.923L64.012 389.096ZM65.7336 393.072L83.5307 382.714L81.5186 379.257L63.7215 389.615L65.7336 393.072ZM83.5247 382.717C84.6195 382.085 85.3837 381.109 85.6869 379.859C85.9706 378.69 85.8118 377.447 85.4467 376.246L81.6197 377.41C81.8709 378.236 81.8521 378.7 81.7997 378.916C81.7667 379.052 81.7185 379.141 81.5247 379.253L83.5247 382.717ZM85.4199 376.164C85.1197 375.311 84.6165 374.188 83.9458 372.831L80.3601 374.604C81.0111 375.92 81.4281 376.871 81.6465 377.492L85.4199 376.164ZM83.153 375.449L85.4601 374.117L83.4601 370.653L81.153 371.985L83.153 375.449ZM82.728 373.385L92.7 390.657L96.1641 388.657L86.1921 371.385L82.728 373.385ZM93.4321 387.925L91.125 389.257L93.125 392.721L95.4321 391.389L93.4321 387.925ZM93.7867 389.876C92.9697 388.657 92.2618 387.683 91.6753 386.999L88.6391 389.603C89.0701 390.106 89.674 390.924 90.4633 392.102L93.7867 389.876ZM91.6891 387.015C90.9605 386.147 90.071 385.48 89.0298 385.05L87.5034 388.747C87.9176 388.918 88.2885 389.186 88.6253 389.587L91.6891 387.015ZM89.0948 385.078C88.0267 384.592 86.6651 384.35 85.3908 385.085L87.3908 388.55C87.3443 388.576 87.2924 388.597 87.241 388.609C87.1908 388.62 87.1571 388.62 87.1477 388.62C87.1397 388.62 87.1587 388.619 87.2089 388.633C87.2595 388.646 87.3354 388.672 87.4384 388.719L89.0948 385.078ZM85.3908 385.085C84.8719 385.385 82.2746 386.941 77.6381 389.728L79.6991 393.156C84.3612 390.353 86.912 388.826 87.3908 388.55L85.3908 385.085ZM77.6381 389.728C65.9896 396.731 56.571 402.474 49.3858 406.955L51.5026 410.349C58.6617 405.884 68.0594 400.153 79.699 393.156L77.6381 389.728ZM49.3666 406.967C48.0895 407.784 47.0643 409.088 47.2195 410.868L51.2044 410.52C51.2043 410.519 51.2048 410.525 51.2041 410.535C51.2034 410.546 51.2016 410.559 51.1983 410.573C51.195 410.588 51.1908 410.6 51.1868 410.61C51.1828 410.619 51.18 410.624 51.1805 410.623C51.1837 410.618 51.2537 410.508 51.5218 410.337L49.3666 406.967ZM47.2119 410.703C47.2177 411.999 47.8506 413.579 48.6782 415.204L52.2426 413.389C51.4124 411.758 51.213 410.937 51.2119 410.685L47.2119 410.703ZM48.6657 415.179L49.1433 416.15L52.7328 414.385L52.2551 413.414L48.6657 415.179ZM49.938 413.535L47.6309 414.867L49.6309 418.332L51.938 417L49.938 413.535ZM50.363 415.599L43.667 404.002L40.2029 406.002L46.8989 417.599L50.363 415.599ZM43.8875 405.435L44.1413 404.291L40.2363 403.424L39.9824 404.568L43.8875 405.435ZM43.1053 405.635C48.5255 402.841 55.1952 399.156 63.1086 394.588L61.1086 391.124C53.2257 395.675 46.6156 399.325 41.2723 402.08L43.1053 405.635ZM63.8064 391.798C63.0981 390.661 61.8147 389.87 60.4768 389.268C59.0647 388.632 57.2416 388.057 55.0555 387.525L54.1104 391.412C56.1798 391.915 57.7388 392.422 58.8352 392.915C60.0059 393.442 60.3577 393.827 60.4109 393.913L63.8064 391.798ZM55.0562 387.525C50.6598 386.455 46.4631 385.706 42.4679 385.284L42.0479 389.262C45.8438 389.663 49.8638 390.378 54.1097 391.412L55.0562 387.525ZM42.4874 385.286C40.5182 385.059 38.9747 384.906 37.8743 384.831C37.3286 384.794 36.8556 384.774 36.4791 384.778C36.2937 384.78 36.0909 384.788 35.8952 384.812C35.7842 384.825 35.3599 384.872 34.942 385.114L36.942 388.578C36.7329 388.698 36.5577 388.744 36.5021 388.758C36.4296 388.776 36.3826 388.782 36.3772 388.783C36.3676 388.784 36.4077 388.779 36.5218 388.778C36.7444 388.775 37.0973 388.788 37.6042 388.822C38.609 388.89 40.078 389.034 42.0283 389.26L42.4874 385.286ZM34.942 385.114C34.2807 385.495 33.838 386.115 33.6766 386.843C33.5343 387.484 33.6357 388.087 33.7653 388.54L37.611 387.44C37.5774 387.322 37.6394 387.449 37.5817 387.709C37.5494 387.854 37.4816 388.03 37.3564 388.202C37.2306 388.375 37.0809 388.498 36.942 388.578L34.942 385.114ZM33.7186 388.338C33.8079 388.843 34.015 389.412 34.2462 389.964C34.4911 390.549 34.8191 391.244 35.2212 392.039L38.7909 390.234C38.4121 389.485 38.1301 388.883 37.9357 388.419C37.8387 388.187 37.7692 388.004 37.7218 387.862C37.6984 387.792 37.6822 387.738 37.6715 387.699C37.6605 387.658 37.6574 387.64 37.6577 387.642L33.7186 388.338ZM36.006 389.405L33.6989 390.737L35.6989 394.201L38.006 392.869L36.006 389.405ZM36.431 391.469L28.079 377.002L24.6149 379.002L32.9669 393.469L36.431 391.469ZM27.3469 379.735L29.654 378.403L27.654 374.938L25.3469 376.27L27.3469 379.735ZM26.9976 377.791C28.1081 379.432 29.1388 380.771 30.0331 381.44L32.4293 378.237C32.1529 378.03 31.4653 377.256 30.3104 375.55L26.9976 377.791ZM29.9736 381.393C30.4657 381.791 31.1711 382.137 31.881 382.443C32.646 382.773 33.6193 383.139 34.7846 383.541L36.0887 379.76C34.9703 379.374 34.1007 379.044 33.4639 378.77C33.1458 378.633 32.9037 378.517 32.7273 378.423C32.5387 378.323 32.4783 378.275 32.4888 378.283L29.9736 381.393ZM34.7846 383.541C37.2194 384.381 42.4186 385.585 50.223 387.152L51.0101 383.23C43.1422 381.651 38.2215 380.495 36.0887 379.76L34.7846 383.541ZM50.2399 387.155L57.1581 388.482L57.9114 384.553L50.9932 383.226L50.2399 387.155ZM59.3511 387.355C65.8949 373.159 70.1572 362.974 72.0784 356.877L68.2633 355.675C66.4272 361.502 62.2654 371.478 55.7184 385.68L59.3511 387.355ZM72.1471 355.968L71.4116 351.238L67.4591 351.853L68.1946 356.583L72.1471 355.968ZM70.4353 353.278L72.6801 351.982L70.6801 348.518L68.4353 349.814L70.4353 353.278ZM69.948 351.25C72.2851 355.298 74.2202 358.457 75.7465 360.707L79.0564 358.461C77.6102 356.329 75.7311 353.266 73.4121 349.25L69.948 351.25ZM75.5802 358.757L62.1907 388.27L65.8333 389.923L79.2228 360.41L75.5802 358.757ZM62.1915 388.268C61.7069 389.333 61.8806 390.413 62.3835 391.284L65.8476 389.284C65.8438 389.277 65.8892 389.354 65.9021 389.501C65.9159 389.66 65.8838 389.812 65.8324 389.924L62.1915 388.268ZM62.3835 391.284L62.9955 392.344L66.4596 390.344L65.8476 389.284L62.3835 391.284Z" fill="white" fill-opacity="0.1"/>
<path d="M57.6315 296.484L57.8406 298.473L59.8296 298.264L59.6206 296.275L57.6315 296.484ZM54.9821 296.762L53.0114 297.103L53.3303 298.947L55.1912 298.752L54.9821 296.762ZM54.2779 293.506L52.3555 294.058L52.3584 294.068L52.3615 294.078L54.2779 293.506ZM53.1212 291.456L51.6242 292.782L51.6477 292.809L51.6721 292.834L53.1212 291.456ZM9.67559 295.515L9.40664 293.534L9.39152 293.536L9.37643 293.538L9.67559 295.515ZM7.71944 296.879L9.55014 297.685L9.58338 297.609L9.61028 297.531L7.71944 296.879ZM7.40227 300.75L9.40115 300.683L9.40048 300.663L9.39941 300.643L7.40227 300.75ZM7.43603 301.76L7.64508 303.749L9.49712 303.554L9.43491 301.693L7.43603 301.76ZM4.78662 302.038L2.79758 302.247L3.00663 304.236L4.99568 304.027L4.78662 302.038ZM2.7019 282.203L2.49285 280.214L0.503803 280.423L0.71286 282.413L2.7019 282.203ZM5.35131 281.925L7.3204 281.575L6.99429 279.741L5.14225 279.936L5.35131 281.925ZM5.52828 282.92L7.504 282.609L7.50089 282.589L7.49737 282.57L5.52828 282.92ZM6.65074 286.711L8.3363 285.635L8.32214 285.613L8.3074 285.591L6.65074 286.711ZM8.8402 287.567L8.95872 289.564L8.96914 289.563L8.97955 289.562L8.8402 287.567ZM52.9006 280.402L54.884 280.66L54.8916 280.601L54.8957 280.542L52.9006 280.402ZM52.8974 276.928L52.6884 274.939L50.8235 275.135L50.899 277.008L52.8974 276.928ZM55.5468 276.649L57.5359 276.44L57.3268 274.451L55.3378 274.66L55.5468 276.649ZM57.4225 294.495L54.7731 294.773L55.1912 298.752L57.8406 298.473L57.4225 294.495ZM56.9529 296.422C56.7026 294.975 56.452 293.797 56.1943 292.934L52.3615 294.078C52.5508 294.713 52.7696 295.706 53.0114 297.103L56.9529 296.422ZM56.2003 292.955C55.8878 291.865 55.3468 290.894 54.5703 290.077L51.6721 292.834C51.9809 293.159 52.211 293.554 52.3555 294.058L56.2003 292.955ZM54.6183 290.13C53.6195 289.002 52.2684 288.521 50.8019 288.675L51.22 292.653C51.3873 292.636 51.4602 292.659 51.4804 292.667C51.4972 292.673 51.5448 292.693 51.6242 292.782L54.6183 290.13ZM50.8019 288.675C34.2735 290.412 20.4735 292.032 9.40664 293.534L9.94454 297.497C20.9574 296.003 34.7143 294.388 51.22 292.653L50.8019 288.675ZM9.37643 293.538C7.87756 293.765 6.41075 294.539 5.8286 296.228L9.61028 297.531C9.61053 297.53 9.60879 297.536 9.60388 297.545C9.59891 297.554 9.592 297.565 9.58314 297.577C9.57429 297.589 9.56542 297.599 9.55777 297.606C9.55022 297.613 9.54582 297.616 9.54656 297.616C9.55166 297.612 9.66009 297.541 9.97475 297.493L9.37643 293.538ZM5.88874 296.074C5.60324 296.723 5.47361 297.476 5.41309 298.215C5.3504 298.98 5.35213 299.867 5.40512 300.857L9.39941 300.643C9.35219 299.761 9.35669 299.067 9.39973 298.542C9.44493 297.99 9.52399 297.744 9.55014 297.685L5.88874 296.074ZM5.40338 300.817L5.43714 301.827L9.43491 301.693L9.40115 300.683L5.40338 300.817ZM7.22697 299.771L4.57756 300.049L4.99568 304.027L7.64508 303.749L7.22697 299.771ZM6.77566 301.829L4.69095 281.994L0.71286 282.413L2.79758 302.247L6.77566 301.829ZM2.91096 284.193L5.56037 283.914L5.14225 279.936L2.49285 280.214L2.91096 284.193ZM3.38221 282.275L3.55918 283.27L7.49737 282.57L7.3204 281.575L3.38221 282.275ZM3.55255 283.231C3.84496 285.09 4.26492 286.754 4.99408 287.832L8.3074 285.591C8.12225 285.317 7.7939 284.453 7.504 282.609L3.55255 283.231ZM4.96518 287.788C5.91032 289.268 7.51047 289.65 8.95872 289.564L8.72167 285.571C8.38724 285.591 8.24852 285.545 8.22953 285.538C8.22459 285.536 8.24418 285.543 8.2737 285.567C8.30391 285.591 8.32516 285.617 8.3363 285.635L4.96518 287.788ZM8.97955 289.562C18.5975 288.891 32.4386 287.605 50.49 285.707L50.0718 281.729C32.034 283.625 18.248 284.905 8.70084 285.572L8.97955 289.562ZM50.49 285.707C51.7321 285.577 52.824 285.014 53.6151 284.013C54.3578 283.072 54.7246 281.888 54.884 280.66L50.9173 280.145C50.81 280.972 50.6069 281.368 50.4764 281.533C50.3942 281.637 50.3096 281.704 50.0718 281.729L50.49 285.707ZM54.8957 280.542C54.9613 279.606 54.9569 278.362 54.8958 276.847L50.899 277.008C50.9581 278.473 50.9558 279.545 50.9055 280.263L54.8957 280.542ZM53.1065 278.917L55.7559 278.638L55.3378 274.66L52.6884 274.939L53.1065 278.917ZM53.5578 276.858L55.6425 296.693L59.6206 296.275L57.5359 276.44L53.5578 276.858Z" fill="white" fill-opacity="0.1"/>
<path d="M24.0301 207.176L24.6482 205.274L24.6379 205.271L24.6277 205.268L24.0301 207.176ZM17.6396 205.176L17.0216 207.078L17.0318 207.081L17.0421 207.084L17.6396 205.176ZM14.4212 204.13L15.0393 202.228L14.888 202.179L14.731 202.154L14.4212 204.13ZM11.4787 206.429L9.64956 205.62L9.64752 205.625L11.4787 206.429ZM10.0239 209.742L9.40582 211.644L11.1272 212.203L11.855 210.546L10.0239 209.742ZM7.49024 208.918L5.58813 208.3L4.9701 210.202L6.87221 210.82L7.49024 208.918ZM11.6953 195.976L11.6631 193.977L10.2347 194L9.79323 195.358L11.6953 195.976ZM60.8879 179.482L61.5546 181.368L67.8424 179.145L61.3688 177.541L60.8879 179.482ZM28.1838 169.462L27.6203 171.381L27.6236 171.382L28.1838 169.462ZM24.6317 169.443L25.605 171.191L25.6397 171.171L25.6736 171.15L24.6317 169.443ZM21.6619 174.156L21.0439 176.058L22.7681 176.619L23.4944 174.958L21.6619 174.156ZM19.0598 173.311L17.1577 172.693L16.5397 174.595L18.4418 175.213L19.0598 173.311ZM24.4442 156.74L25.0622 154.838L23.1601 154.219L22.542 156.122L24.4442 156.74ZM26.9093 157.541L28.8589 157.987L29.2667 156.204L27.5273 155.638L26.9093 157.541ZM26.956 163.688L25.3866 164.928L25.6359 165.243L25.9877 165.438L26.956 163.688ZM28.9452 164.788L27.977 166.538L28.1194 166.617L28.2727 166.672L28.9452 164.788ZM61.658 175.947L61.04 177.85L61.0516 177.853L61.0632 177.857L61.658 175.947ZM72.9326 179.459L74.8347 180.077L75.4603 178.152L73.5274 177.55L72.9326 179.459ZM71.6199 183.499L72.1607 185.425L73.1912 185.135L73.522 184.117L71.6199 183.499ZM59.9915 187.367L60.6764 189.246L60.6882 189.242L59.9915 187.367ZM49.1608 191.343L49.8381 193.225L49.8475 193.222L49.8569 193.218L49.1608 191.343ZM20.4605 201.853L19.7685 199.976L14.3561 201.972L19.8425 203.755L20.4605 201.853ZM41.4827 208.683L40.8646 210.585L40.8895 210.593L40.9146 210.601L41.4827 208.683ZM58.3807 212.13L59.9072 213.422L59.9171 213.41L59.9268 213.398L58.3807 212.13ZM60.6948 208.036L61.3129 206.134L59.5873 205.574L58.8617 207.237L60.6948 208.036ZM63.3654 208.904L65.2675 209.522L65.8855 207.62L63.9834 207.002L63.3654 208.904ZM58.1146 225.064L57.4965 226.967L59.3987 227.585L60.0167 225.682L58.1146 225.064ZM55.6494 224.263L53.6997 223.818L53.2923 225.6L55.0314 226.166L55.6494 224.263ZM54.4832 217.601L53.6074 219.399L53.616 219.403L54.4832 217.601ZM24.6277 205.268L18.2371 203.267L17.0421 207.084L23.4326 209.085L24.6277 205.268ZM18.2576 203.273L15.0393 202.228L13.8032 206.032L17.0216 207.078L18.2576 203.273ZM14.731 202.154C13.5689 201.972 12.4684 202.273 11.5537 202.988C10.7048 203.651 10.1007 204.6 9.64957 205.62L13.3078 207.238C13.6178 206.537 13.8847 206.242 14.0166 206.139C14.0708 206.097 14.0889 206.097 14.0744 206.101C14.0588 206.105 14.064 206.098 14.1115 206.106L14.731 202.154ZM9.64752 205.625L8.19268 208.937L11.855 210.546L13.3099 207.233L9.64752 205.625ZM10.6419 207.839L8.10828 207.016L6.87221 210.82L9.40582 211.644L10.6419 207.839ZM9.39236 209.536L13.5975 196.594L9.79323 195.358L5.58813 208.3L9.39236 209.536ZM11.7276 197.976C12.2286 197.968 12.9141 197.808 13.5445 197.646C14.2643 197.461 15.2032 197.192 16.3507 196.843C18.6493 196.144 21.8558 195.104 25.9611 193.728C34.1756 190.973 46.0421 186.853 61.5546 181.368L60.2212 177.597C44.7145 183.079 32.8725 187.191 24.6895 189.935C20.5961 191.308 17.4315 192.333 15.1868 193.016C14.0627 193.358 13.1869 193.608 12.5488 193.772C11.8215 193.959 11.6061 193.978 11.6631 193.977L11.7276 197.976ZM61.3688 177.541C58.8307 176.912 54.3211 175.549 47.7902 173.427L46.5541 177.231C53.0793 179.351 57.7135 180.757 60.407 181.424L61.3688 177.541ZM47.7902 173.427C41.199 171.285 34.8502 169.323 28.7439 167.542L27.6236 171.382C33.6878 173.151 39.9979 175.101 46.5541 177.231L47.7902 173.427ZM28.7472 167.543C27.0329 167.04 25.1128 166.807 23.5897 167.736L25.6736 171.15C25.6446 171.168 25.7332 171.1 26.0758 171.102C26.4205 171.104 26.925 171.177 27.6203 171.381L28.7472 167.543ZM23.6583 167.696C22.7926 168.178 22.1221 169.056 21.5963 169.89C21.0265 170.794 20.4386 171.962 19.8295 173.355L23.4944 174.958C24.0639 173.655 24.5604 172.689 24.9805 172.023C25.4446 171.286 25.6696 171.155 25.605 171.191L23.6583 167.696ZM22.28 172.254L19.6779 171.409L18.4418 175.213L21.0439 176.058L22.28 172.254ZM20.962 173.929L26.3463 157.358L22.542 156.122L17.1577 172.693L20.962 173.929ZM23.8261 158.642L26.2913 159.443L27.5273 155.638L25.0622 154.838L23.8261 158.642ZM24.9596 157.095C24.5825 158.744 24.3717 160.211 24.3811 161.453C24.3901 162.643 24.6016 163.934 25.3866 164.928L28.5253 162.448C28.5593 162.491 28.3875 162.282 28.381 161.423C28.3749 160.616 28.5162 159.485 28.8589 157.987L24.9596 157.095ZM25.9877 165.438L27.977 166.538L29.9134 163.038L27.9242 161.938L25.9877 165.438ZM28.2727 166.672C39.2796 170.602 50.202 174.328 61.04 177.85L62.276 174.045C51.4755 170.536 40.5894 166.823 29.6178 162.905L28.2727 166.672ZM61.0632 177.857L72.3378 181.369L73.5274 177.55L62.2528 174.038L61.0632 177.857ZM71.0304 178.841L69.7177 182.881L73.522 184.117L74.8347 180.077L71.0304 178.841ZM71.079 181.574C67.6791 182.529 63.749 183.837 59.2948 185.493L60.6882 189.242C65.0738 187.612 68.8959 186.342 72.1607 185.425L71.079 181.574ZM59.3065 185.488C54.8392 187.117 51.2249 188.443 48.4647 189.468L49.8569 193.218C52.6065 192.197 56.2126 190.874 60.6764 189.246L59.3065 185.488ZM48.4835 189.461C42.8743 191.48 33.301 194.986 19.7685 199.976L21.1525 203.729C34.685 198.739 44.2452 195.238 49.8381 193.225L48.4835 189.461ZM19.8425 203.755L40.8646 210.585L42.1007 206.781L21.0785 199.95L19.8425 203.755ZM40.9146 210.601C49.73 213.212 54.5211 214.644 55.3558 214.915L56.5919 211.111C55.6919 210.819 50.8222 209.364 42.0507 206.765L40.9146 210.601ZM55.3558 214.915C56.1851 215.185 57.0642 215.193 57.9153 214.881C58.7325 214.581 59.3872 214.036 59.9072 213.422L56.8542 210.837C56.637 211.094 56.522 211.132 56.5369 211.126C56.5471 211.122 56.5702 211.117 56.597 211.116C56.6222 211.116 56.6231 211.121 56.5919 211.111L55.3558 214.915ZM59.9268 213.398C60.8475 212.276 61.7056 210.721 62.5279 208.836L58.8617 207.237C58.1025 208.976 57.4179 210.15 56.8346 210.861L59.9268 213.398ZM60.0768 209.938L62.7474 210.806L63.9834 207.002L61.3129 206.134L60.0768 209.938ZM61.4633 208.286L56.2125 224.446L60.0167 225.682L65.2675 209.522L61.4633 208.286ZM58.7326 223.162L56.2675 222.361L55.0314 226.166L57.4965 226.967L58.7326 223.162ZM57.5992 224.709C58.0428 222.768 58.2169 220.995 57.956 219.505C57.6824 217.942 56.8881 216.539 55.3504 215.799L53.616 219.403C53.6931 219.44 53.9007 219.536 54.0159 220.194C54.1437 220.924 54.0935 222.095 53.6997 223.818L57.5992 224.709ZM55.359 215.803C54.1386 215.208 51.3689 214.177 47.208 212.737C42.9938 211.279 37.2297 209.362 29.9208 206.987L28.6847 210.792C35.9841 213.163 41.7208 215.071 45.9001 216.517C50.1326 217.982 52.649 218.932 53.6074 219.399L55.359 215.803ZM29.9208 206.987L24.6482 205.274L23.4121 209.078L28.6847 210.792L29.9208 206.987Z" fill="white" fill-opacity="0.1"/>
<path d="M65.4307 112.973L63.6151 113.812L63.6164 113.814L65.4307 112.973ZM63.9558 103.313L65.9553 103.356L65.9555 103.348L65.9556 103.339L63.9558 103.313ZM67.5439 92.0106L69.1897 93.147L69.1941 93.1407L69.1984 93.1343L67.5439 92.0106ZM79.5508 78.8908L80.857 80.4054L80.8675 80.3963L80.8779 80.3871L79.5508 78.8908ZM85.0532 74.9318L84.8619 72.941L84.6392 72.9624L84.4267 73.0325L85.0532 74.9318ZM86.2199 74.8197L87.5582 73.3334L86.9044 72.7447L86.0286 72.8288L86.2199 74.8197ZM95.2034 83.7805L96.6897 85.1187L97.9358 83.7348L96.6442 82.3933L95.2034 83.7805ZM93.5172 85.6532L92.6517 87.4562L94.0016 88.1042L95.0035 86.9914L93.5172 85.6532ZM85.6296 82.039L86.3343 80.1672L85.7332 79.941L85.1128 80.1069L85.6296 82.039ZM80.4806 84.9599L79.323 83.329L80.4806 84.9599ZM68.3064 104.614L66.3577 105.064L66.3599 105.074L66.3622 105.083L68.3064 104.614ZM115.16 109.5L117.159 109.463L117.143 108.595L116.498 108.014L115.16 109.5ZM104.763 102.754L103.718 101.049L103.705 101.057L103.692 101.065L104.763 102.754ZM101.631 105.264L103.006 106.716L103.016 106.707L103.025 106.698L101.631 105.264ZM100.32 106.505L99.026 108.03L100.393 109.19L101.695 107.958L100.32 106.505ZM98.4526 104.92L97.0692 103.476L95.4673 105.01L97.1586 106.445L98.4526 104.92ZM111.798 90.0992L113.136 88.6129L111.536 87.1718L110.217 88.8744L111.798 90.0992ZM113.777 91.8817L115.355 93.1107L116.5 91.6415L115.116 90.3955L113.777 91.8817ZM113.156 92.679L114.719 93.9277L114.727 93.9179L114.734 93.908L113.156 92.679ZM111.326 95.6809L109.398 95.1486L109.39 95.1778L109.382 95.2073L111.326 95.6809ZM121.829 106.397L123.826 106.293L123.782 105.465L123.167 104.911L121.829 106.397ZM121.887 107.516L123.735 108.281L123.908 107.863L123.884 107.411L121.887 107.516ZM95.5508 134.183L95.7421 136.174L95.7492 136.173L95.5508 134.183ZM75.677 122.898C71.6821 119.301 68.9037 115.707 67.245 112.131L63.6164 113.814C65.5594 118.003 68.7197 122.017 73.0005 125.871L75.677 122.898ZM67.2462 112.134C66.3553 110.206 65.8682 107.334 65.9553 103.356L61.9562 103.269C61.8631 107.526 62.3593 111.094 63.6151 113.812L67.2462 112.134ZM65.9556 103.339C66.0049 99.5828 67.0797 96.2026 69.1897 93.147L65.8982 90.8741C63.3328 94.5892 62.0155 98.7437 61.9559 103.286L65.9556 103.339ZM69.1984 93.1343C70.5265 91.1789 72.1574 89.1225 74.0997 86.9654L71.1271 84.2888C69.0868 86.5549 67.338 88.7542 65.8895 90.8868L69.1984 93.1343ZM74.0997 86.9654C76.0599 84.7883 78.3108 82.6013 80.857 80.4054L78.2446 77.3763C75.5878 79.6675 73.2138 81.9714 71.1271 84.2888L74.0997 86.9654ZM80.8779 80.3871C82.133 79.2738 83.1772 78.4233 84.0188 77.8178C84.8958 77.1868 85.4281 76.9141 85.6797 76.8311L84.4267 73.0325C83.5758 73.3131 82.6398 73.8822 81.6826 74.5709C80.69 75.285 79.5343 76.2321 78.2237 77.3946L80.8779 80.3871ZM85.2445 76.9226L86.4112 76.8105L86.0286 72.8288L84.8619 72.941L85.2445 76.9226ZM84.8817 76.306C86.6059 77.8585 89.5554 80.7978 93.7627 85.1676L96.6442 82.3933C92.4405 78.0272 89.401 74.9927 87.5582 73.3334L84.8817 76.306ZM93.7172 82.4422L92.0309 84.3149L95.0035 86.9914L96.6897 85.1187L93.7172 82.4422ZM94.3828 83.8502C90.2618 81.8718 87.5439 80.6226 86.3343 80.1672L84.925 83.9108C85.9343 84.2908 88.4748 85.451 92.6517 87.4562L94.3828 83.8502ZM85.1128 80.1069C83.6191 80.5065 81.6382 81.6857 79.323 83.329L81.6382 86.5908C83.9762 84.9314 85.4279 84.1633 86.1464 83.9711L85.1128 80.1069ZM79.323 83.329C76.8641 85.0743 74.5323 87.1783 72.3247 89.6301L75.2973 92.3066C77.3293 90.0499 79.444 88.1483 81.6382 86.5908L79.323 83.329ZM72.3247 89.6301C67.5896 94.889 65.2107 100.099 66.3577 105.064L70.2551 104.164C69.5558 101.137 70.8466 97.2496 75.2973 92.3066L72.3247 89.6301ZM66.3622 105.083C66.9311 107.442 68.3065 109.938 70.3084 112.55C72.3227 115.179 75.0516 118.029 78.4603 121.098L81.1368 118.126C77.8394 115.157 75.2998 112.488 73.4835 110.117C71.6546 107.731 70.637 105.747 70.2507 104.145L66.3622 105.083ZM78.4603 121.098C84.2572 126.318 90.068 129.165 95.8555 129.132C101.691 129.099 107.032 126.143 111.865 120.775L108.892 118.099C104.539 122.933 100.19 125.107 95.8325 125.132C91.4267 125.157 86.5406 122.991 81.1368 118.126L78.4603 121.098ZM111.865 120.775C115.253 117.012 117.229 113.223 117.159 109.463L113.16 109.537C113.203 111.821 111.992 114.656 108.892 118.099L111.865 120.775ZM116.498 108.014L109.06 101.317L106.384 104.29L113.821 110.986L116.498 108.014ZM109.06 101.317C108.337 100.666 107.434 100.254 106.4 100.237C105.411 100.221 104.502 100.568 103.718 101.049L105.808 104.46C105.987 104.35 106.12 104.293 106.21 104.264C106.254 104.25 106.285 104.243 106.305 104.24C106.325 104.237 106.334 104.237 106.334 104.237C106.334 104.237 106.329 104.237 106.321 104.235C106.313 104.233 106.307 104.231 106.305 104.23C106.298 104.227 106.325 104.237 106.384 104.29L109.06 101.317ZM103.692 101.065C102.507 101.816 101.356 102.742 100.237 103.83L103.025 106.698C103.977 105.773 104.913 105.027 105.833 104.444L103.692 101.065ZM100.257 103.811L98.9451 105.052L101.695 107.958L103.006 106.716L100.257 103.811ZM101.614 104.98L99.7466 103.395L97.1586 106.445L99.026 108.03L101.614 104.98ZM99.8359 106.365C101.762 104.52 104.086 102.083 106.801 99.0675L103.829 96.391C101.148 99.3683 98.8969 101.726 97.0692 103.476L99.8359 106.365ZM106.801 99.0675C109.548 96.0169 111.745 93.4331 113.379 91.324L110.217 88.8744C108.667 90.8747 106.542 93.3776 103.829 96.391L106.801 99.0675ZM110.459 91.5855L112.439 93.368L115.116 90.3955L113.136 88.6129L110.459 91.5855ZM112.2 90.6528L111.579 91.45L114.734 93.908L115.355 93.1107L112.2 90.6528ZM111.594 91.4303C110.557 92.728 109.714 94.0012 109.398 95.1486L113.253 96.2132C113.336 95.9122 113.715 95.1841 114.719 93.9277L111.594 91.4303ZM109.382 95.2073C109.226 95.8495 109.212 96.5436 109.429 97.235C109.645 97.9245 110.051 98.4844 110.538 98.9227L113.215 95.9501C113.188 95.9263 113.188 95.9211 113.2 95.9384C113.212 95.9571 113.231 95.991 113.246 96.0374C113.26 96.0841 113.265 96.1252 113.265 96.1532C113.266 96.1795 113.262 96.1817 113.269 96.1546L109.382 95.2073ZM110.538 98.9227L120.49 107.884L123.167 104.911L113.215 95.9501L110.538 98.9227ZM119.831 106.502L119.89 107.621L123.884 107.411L123.826 106.293L119.831 106.502ZM120.039 106.75C116.956 114.194 113.55 119.919 109.865 124.013L112.837 126.689C116.924 122.15 120.543 115.986 123.735 108.281L120.039 106.75ZM109.865 124.013C105.329 129.05 100.494 131.68 95.3523 132.193L95.7492 136.173C102.103 135.54 107.801 132.282 112.837 126.689L109.865 124.013ZM95.3594 132.192C89.9824 132.709 83.4579 129.904 75.677 122.898L73.0005 125.871C81.0575 133.126 88.6743 136.853 95.7421 136.174L95.3594 132.192Z" fill="white" fill-opacity="0.1"/>
<path d="M165.168 61.1691L163.212 61.5857L163.726 64.0003L165.981 62.9962L165.168 61.1691ZM164.156 56.4179L163.343 54.5908L161.862 55.2498L162.2 56.8346L164.156 56.4179ZM178.035 50.2388L178.751 48.3716L177.978 48.0747L177.221 48.4117L178.035 50.2388ZM179.08 50.6402L181.039 50.2349L180.817 49.1647L179.797 48.773L179.08 50.6402ZM179.902 54.6092L180.715 56.4363L182.187 55.7812L181.86 54.2039L179.902 54.6092ZM167.124 60.7524L166.112 56.0013L162.2 56.8346L163.212 61.5857L167.124 60.7524ZM164.969 58.245L178.848 52.0659L177.221 48.4117L163.343 54.5908L164.969 58.245ZM177.318 52.1059L178.364 52.5073L179.797 48.773L178.751 48.3716L177.318 52.1059ZM177.122 51.0455L177.943 55.0145L181.86 54.2039L181.039 50.2349L177.122 51.0455ZM179.088 52.7821L164.355 59.342L165.981 62.9962L180.715 56.4363L179.088 52.7821Z" fill="white" fill-opacity="0.1"/>
</svg>
